<svg width="286.157" height="56.299" viewBox="0 0 286.157 56.299" xmlns="http://www.w3.org/2000/svg"><g id="svgGroup" stroke-linecap="round" fill-rule="evenodd" font-size="9pt" stroke="#000" stroke-width="0.25mm" fill="black" style="stroke:#000;stroke-width:0.25mm;fill:black"><path d="M 172.07 36.377 L 172.07 22.998 L 168.433 22.998 L 168.14 20.972 A 29.401 29.401 0 0 0 168.314 20.904 Q 168.511 20.827 168.776 20.72 A 112.594 112.594 0 0 0 169.031 20.618 A 13.512 13.512 0 0 1 169.641 20.389 A 18.131 18.131 0 0 1 170.325 20.166 A 16.592 16.592 0 0 1 171.814 19.788 A 7.843 7.843 0 0 1 172.697 19.655 A 6.372 6.372 0 0 1 173.267 19.629 A 6.336 6.336 0 0 1 173.863 19.655 Q 174.471 19.713 174.866 19.897 A 2.835 2.835 0 0 1 175.255 20.116 Q 175.545 20.313 175.72 20.557 A 1.86 1.86 0 0 1 176.062 21.411 Q 176.117 21.826 176.122 22.163 A 4.584 4.584 0 0 1 176.123 22.241 L 176.123 36.157 A 17.744 17.744 0 0 0 176.142 37.005 Q 176.163 37.442 176.207 37.816 A 7.287 7.287 0 0 0 176.318 38.501 A 4.071 4.071 0 0 0 176.503 39.124 Q 176.63 39.449 176.807 39.702 A 2.186 2.186 0 0 0 176.978 39.917 A 2.24 2.24 0 0 0 177.881 40.517 A 2.867 2.867 0 0 0 178.198 40.613 A 6.272 6.272 0 0 0 178.821 40.728 Q 179.138 40.771 179.504 40.795 A 13.697 13.697 0 0 0 180.103 40.82 Q 180.859 40.845 181.824 40.662 A 17.367 17.367 0 0 0 183.765 40.173 A 20.079 20.079 0 0 0 185.657 39.478 A 18.656 18.656 0 0 0 186.464 39.111 Q 186.839 38.93 187.164 38.748 A 11.051 11.051 0 0 0 187.256 38.696 L 187.256 22.998 L 183.032 22.998 L 182.739 20.898 A 9.364 9.364 0 0 1 182.92 20.831 Q 183.224 20.721 183.728 20.557 A 20.094 20.094 0 0 1 184.436 20.34 A 26.226 26.226 0 0 1 185.217 20.129 A 21.718 21.718 0 0 1 186.89 19.775 A 10.834 10.834 0 0 1 187.708 19.666 A 7.99 7.99 0 0 1 188.452 19.629 A 6.315 6.315 0 0 1 189.041 19.654 Q 189.63 19.71 190.013 19.885 A 1.782 1.782 0 0 1 190.039 19.897 A 2.784 2.784 0 0 1 190.435 20.126 Q 190.649 20.276 190.801 20.454 A 1.594 1.594 0 0 1 190.881 20.557 A 1.86 1.86 0 0 1 191.223 21.411 Q 191.278 21.826 191.284 22.163 A 4.584 4.584 0 0 1 191.284 22.241 L 191.284 40.942 L 195.728 40.942 L 195.898 42.969 A 5.544 5.544 0 0 1 195.728 43.036 Q 195.452 43.14 194.984 43.294 A 38.601 38.601 0 0 1 194.934 43.311 A 21.272 21.272 0 0 1 194.229 43.527 A 27.183 27.183 0 0 1 193.457 43.738 Q 192.651 43.945 191.785 44.092 Q 190.918 44.238 190.234 44.238 Q 189.233 44.238 188.673 43.97 A 1.747 1.747 0 0 1 188.647 43.958 A 2.714 2.714 0 0 1 188.253 43.72 Q 187.981 43.519 187.817 43.274 Q 187.549 42.871 187.488 42.395 A 8.398 8.398 0 0 1 187.446 41.999 Q 187.427 41.759 187.427 41.553 L 187.427 40.552 L 187.354 40.552 A 19.87 19.87 0 0 1 186.829 40.94 Q 186.591 41.111 186.319 41.298 A 41.678 41.678 0 0 1 185.742 41.687 A 15.507 15.507 0 0 1 184.431 42.462 A 18.831 18.831 0 0 1 183.557 42.896 A 17.37 17.37 0 0 1 181.236 43.773 A 19.247 19.247 0 0 1 180.981 43.848 Q 179.614 44.238 178.223 44.238 A 13.95 13.95 0 0 1 177.031 44.19 Q 176.099 44.11 175.366 43.896 Q 174.194 43.555 173.462 42.664 A 4.408 4.408 0 0 1 172.872 41.707 Q 172.578 41.069 172.4 40.247 Q 172.162 39.143 172.096 37.612 A 28.735 28.735 0 0 1 172.07 36.377 Z M 6.641 48.12 L 6.641 34.131 Q 6.641 33.804 6.6 33.559 A 2.003 2.003 0 0 0 6.567 33.398 A 1.511 1.511 0 0 0 6.465 33.111 A 1.212 1.212 0 0 0 6.335 32.898 A 1.688 1.688 0 0 0 6.084 32.636 A 2.078 2.078 0 0 0 5.933 32.52 A 9.616 9.616 0 0 0 5.679 32.348 Q 5.535 32.254 5.371 32.153 L 0 29.102 L 0 26.685 L 5.835 23.267 A 1.666 1.666 0 0 0 6.202 22.964 A 1.327 1.327 0 0 0 6.494 22.437 A 3.802 3.802 0 0 0 6.623 21.722 A 4.692 4.692 0 0 0 6.641 21.313 L 6.641 8.154 Q 6.641 7.056 6.885 5.847 A 4.964 4.964 0 0 1 7.51 4.267 A 6.401 6.401 0 0 1 8.032 3.528 A 6.312 6.312 0 0 1 8.949 2.623 Q 9.43 2.231 10.036 1.865 A 12.772 12.772 0 0 1 10.706 1.489 Q 11.944 0.84 13.81 0.37 A 27.224 27.224 0 0 1 15.527 0 L 16.333 2.026 L 12.598 4.053 Q 12.074 4.402 11.686 4.732 A 6.736 6.736 0 0 0 11.597 4.81 A 3.602 3.602 0 0 0 11.024 5.446 A 3.282 3.282 0 0 0 10.913 5.615 A 2.887 2.887 0 0 0 10.646 6.193 A 3.762 3.762 0 0 0 10.522 6.653 A 5.523 5.523 0 0 0 10.441 7.199 Q 10.413 7.475 10.404 7.789 A 10.457 10.457 0 0 0 10.4 8.081 L 10.4 20.679 Q 10.4 21.777 10.278 22.607 A 6.053 6.053 0 0 1 10.12 23.363 A 4.478 4.478 0 0 1 9.863 24.06 A 3.824 3.824 0 0 1 9.106 25.146 A 4.37 4.37 0 0 1 8.479 25.662 A 5.652 5.652 0 0 1 7.959 25.977 L 4.175 28.003 L 7.861 29.834 A 4.737 4.737 0 0 1 9.717 31.628 Q 10.256 32.543 10.37 33.922 A 9.372 9.372 0 0 1 10.4 34.692 L 10.4 48.071 Q 10.4 48.726 10.472 49.229 A 4.963 4.963 0 0 0 10.522 49.524 A 4.097 4.097 0 0 0 10.702 50.154 A 3.314 3.314 0 0 0 10.901 50.586 A 3.107 3.107 0 0 0 11.572 51.416 A 4.932 4.932 0 0 0 12.02 51.765 Q 12.283 51.948 12.598 52.124 L 16.455 54.37 L 15.527 56.274 A 26.285 26.285 0 0 1 13.745 55.901 Q 12.834 55.674 12.074 55.401 A 10.839 10.839 0 0 1 10.706 54.81 A 11.678 11.678 0 0 1 9.511 54.096 Q 8.942 53.704 8.507 53.285 A 5.779 5.779 0 0 1 8.032 52.771 Q 7.129 51.66 6.885 50.439 A 12.711 12.711 0 0 1 6.675 48.961 A 10.548 10.548 0 0 1 6.641 48.12 Z M 275.757 48.218 L 275.757 35.62 Q 275.757 34.521 275.879 33.691 A 6.053 6.053 0 0 1 276.037 32.936 A 4.478 4.478 0 0 1 276.294 32.239 A 3.824 3.824 0 0 1 277.051 31.152 A 4.37 4.37 0 0 1 277.678 30.637 A 5.652 5.652 0 0 1 278.198 30.322 L 281.982 28.296 L 278.296 26.465 A 4.737 4.737 0 0 1 276.44 24.67 Q 275.901 23.755 275.787 22.377 A 9.372 9.372 0 0 1 275.757 21.606 L 275.757 8.228 Q 275.757 7.397 275.635 6.787 A 4.177 4.177 0 0 0 275.467 6.18 A 3.276 3.276 0 0 0 275.256 5.713 A 3.107 3.107 0 0 0 274.585 4.883 A 4.932 4.932 0 0 0 274.137 4.534 Q 273.874 4.351 273.56 4.175 L 269.702 1.929 L 270.63 0.024 A 26.285 26.285 0 0 1 272.412 0.398 Q 273.323 0.625 274.083 0.898 A 10.839 10.839 0 0 1 275.452 1.489 Q 276.833 2.213 277.686 3.056 A 5.72 5.72 0 0 1 278.125 3.54 A 6.211 6.211 0 0 1 278.855 4.666 A 4.869 4.869 0 0 1 279.272 5.872 Q 279.517 7.08 279.517 8.179 L 279.517 22.168 Q 279.517 22.494 279.557 22.74 A 2.003 2.003 0 0 0 279.59 22.9 A 1.511 1.511 0 0 0 279.692 23.188 A 1.212 1.212 0 0 0 279.822 23.401 A 1.852 1.852 0 0 0 280.101 23.692 A 2.171 2.171 0 0 0 280.212 23.779 Q 280.39 23.91 280.632 24.055 A 8.437 8.437 0 0 0 280.786 24.146 L 286.157 27.197 L 286.157 29.614 L 280.322 33.032 A 1.666 1.666 0 0 0 279.955 33.335 A 1.327 1.327 0 0 0 279.663 33.862 A 3.802 3.802 0 0 0 279.534 34.577 A 4.692 4.692 0 0 0 279.517 34.985 L 279.517 48.145 A 12.019 12.019 0 0 1 279.444 49.439 A 13.428 13.428 0 0 1 279.419 49.658 A 6.57 6.57 0 0 1 279.106 50.985 A 7.46 7.46 0 0 1 279.016 51.233 A 5.681 5.681 0 0 1 278.416 52.372 A 6.774 6.774 0 0 1 278.125 52.771 A 5.831 5.831 0 0 1 277.438 53.497 Q 277.094 53.807 276.672 54.103 A 9.733 9.733 0 0 1 276.55 54.187 A 9.12 9.12 0 0 1 275.596 54.749 Q 274.926 55.093 274.109 55.396 A 16.296 16.296 0 0 1 272.728 55.833 Q 272.009 56.028 271.188 56.192 A 29.701 29.701 0 0 1 270.63 56.299 L 269.824 54.272 L 273.56 52.246 Q 274.084 51.897 274.471 51.567 A 6.736 6.736 0 0 0 274.561 51.489 A 3.602 3.602 0 0 0 275.134 50.852 A 3.282 3.282 0 0 0 275.244 50.684 A 2.943 2.943 0 0 0 275.523 50.077 A 3.729 3.729 0 0 0 275.635 49.658 A 5.117 5.117 0 0 0 275.709 49.181 Q 275.757 48.752 275.757 48.218 Z M 37.842 20.679 L 37.842 7.642 L 33.154 7.642 L 32.886 5.542 Q 33.179 5.42 33.936 5.212 A 33.85 33.85 0 0 1 34.732 5.005 A 44.27 44.27 0 0 1 35.608 4.797 A 32.958 32.958 0 0 1 37.476 4.431 A 13.927 13.927 0 0 1 38.152 4.334 Q 38.485 4.296 38.776 4.281 A 6.745 6.745 0 0 1 39.111 4.272 Q 40.073 4.272 40.616 4.509 A 1.741 1.741 0 0 1 40.686 4.541 A 2.613 2.613 0 0 1 41.102 4.792 Q 41.354 4.98 41.516 5.212 A 1.942 1.942 0 0 1 41.858 6.079 A 16.046 16.046 0 0 1 41.904 6.466 Q 41.923 6.644 41.936 6.804 A 9.488 9.488 0 0 1 41.943 6.909 L 41.943 40.942 L 46.655 40.942 L 46.851 42.969 A 4.849 4.849 0 0 1 46.679 43.036 Q 46.415 43.134 45.969 43.276 A 35.334 35.334 0 0 1 45.862 43.311 A 21.897 21.897 0 0 1 45.129 43.527 A 28.379 28.379 0 0 1 44.324 43.738 A 22.501 22.501 0 0 1 42.59 44.092 Q 41.699 44.238 41.016 44.238 Q 40.364 44.238 39.894 44.119 A 2.325 2.325 0 0 1 39.441 43.958 Q 38.867 43.677 38.586 43.274 Q 38.306 42.871 38.245 42.395 A 8.398 8.398 0 0 1 38.203 41.999 Q 38.184 41.759 38.184 41.553 L 38.184 40.723 L 38.11 40.723 A 9.119 9.119 0 0 1 37.492 41.205 Q 37.151 41.45 36.746 41.701 A 17.53 17.53 0 0 1 36.365 41.931 A 18.396 18.396 0 0 1 34.526 42.87 A 20.834 20.834 0 0 1 34.07 43.066 A 18.011 18.011 0 0 1 31.519 43.909 A 11.355 11.355 0 0 1 30.082 44.175 A 9.09 9.09 0 0 1 29.028 44.238 A 12.288 12.288 0 0 1 27.335 44.129 Q 26.444 44.004 25.706 43.739 A 5.921 5.921 0 0 1 24.768 43.311 Q 23.145 42.383 22.253 40.808 A 9.399 9.399 0 0 1 21.373 38.635 A 12.085 12.085 0 0 1 21.069 37.134 A 30.902 30.902 0 0 1 20.797 33.918 A 35.981 35.981 0 0 1 20.776 32.69 Q 20.776 29.248 21.545 26.782 A 12.462 12.462 0 0 1 22.417 24.661 A 9.432 9.432 0 0 1 23.767 22.717 A 8.589 8.589 0 0 1 27.332 20.374 A 12.765 12.765 0 0 1 29.889 19.771 A 16.892 16.892 0 0 1 32.129 19.629 A 12.909 12.909 0 0 1 32.537 19.636 Q 32.898 19.647 33.325 19.678 A 15.566 15.566 0 0 1 34.3 19.779 A 18.408 18.408 0 0 1 34.766 19.849 A 16.33 16.33 0 0 1 36.118 20.128 A 18.089 18.089 0 0 1 36.316 20.178 Q 37.109 20.386 37.842 20.679 Z M 257.715 20.679 L 257.715 7.642 L 253.027 7.642 L 252.759 5.542 Q 253.052 5.42 253.809 5.212 A 33.85 33.85 0 0 1 254.605 5.005 A 44.27 44.27 0 0 1 255.481 4.797 A 32.958 32.958 0 0 1 257.349 4.431 A 13.927 13.927 0 0 1 258.025 4.334 Q 258.358 4.296 258.649 4.281 A 6.745 6.745 0 0 1 258.984 4.272 Q 259.946 4.272 260.489 4.509 A 1.741 1.741 0 0 1 260.559 4.541 A 2.613 2.613 0 0 1 260.975 4.792 Q 261.227 4.98 261.389 5.212 A 1.942 1.942 0 0 1 261.731 6.079 A 16.046 16.046 0 0 1 261.777 6.466 Q 261.796 6.644 261.809 6.804 A 9.488 9.488 0 0 1 261.816 6.909 L 261.816 40.942 L 266.528 40.942 L 266.724 42.969 A 4.849 4.849 0 0 1 266.552 43.036 Q 266.288 43.134 265.842 43.276 A 35.334 35.334 0 0 1 265.735 43.311 A 21.897 21.897 0 0 1 265.002 43.527 A 28.379 28.379 0 0 1 264.197 43.738 A 22.501 22.501 0 0 1 262.463 44.092 Q 261.572 44.238 260.889 44.238 Q 260.237 44.238 259.767 44.119 A 2.325 2.325 0 0 1 259.314 43.958 Q 258.74 43.677 258.459 43.274 Q 258.179 42.871 258.118 42.395 A 8.398 8.398 0 0 1 258.076 41.999 Q 258.057 41.759 258.057 41.553 L 258.057 40.723 L 257.983 40.723 A 9.119 9.119 0 0 1 257.366 41.205 Q 257.024 41.45 256.619 41.701 A 17.53 17.53 0 0 1 256.238 41.931 A 18.396 18.396 0 0 1 254.399 42.87 A 20.834 20.834 0 0 1 253.943 43.066 A 18.011 18.011 0 0 1 251.392 43.909 A 11.355 11.355 0 0 1 249.955 44.175 A 9.09 9.09 0 0 1 248.901 44.238 A 12.288 12.288 0 0 1 247.208 44.129 Q 246.317 44.004 245.579 43.739 A 5.921 5.921 0 0 1 244.641 43.311 Q 243.018 42.383 242.126 40.808 A 9.399 9.399 0 0 1 241.246 38.635 A 12.085 12.085 0 0 1 240.942 37.134 A 30.902 30.902 0 0 1 240.67 33.918 A 35.981 35.981 0 0 1 240.649 32.69 Q 240.649 29.248 241.418 26.782 A 12.462 12.462 0 0 1 242.29 24.661 A 9.432 9.432 0 0 1 243.64 22.717 A 8.589 8.589 0 0 1 247.205 20.374 A 12.765 12.765 0 0 1 249.762 19.771 A 16.892 16.892 0 0 1 252.002 19.629 A 12.909 12.909 0 0 1 252.411 19.636 Q 252.771 19.647 253.198 19.678 A 15.566 15.566 0 0 1 254.173 19.779 A 18.408 18.408 0 0 1 254.639 19.849 A 16.33 16.33 0 0 1 255.991 20.128 A 18.089 18.089 0 0 1 256.189 20.178 Q 256.982 20.386 257.715 20.679 Z M 66.431 36.157 L 68.799 36.084 A 7.512 7.512 0 0 1 68.984 36.851 A 8.571 8.571 0 0 1 69.031 37.122 A 17.198 17.198 0 0 1 69.165 38.208 A 25.534 25.534 0 0 1 69.225 38.993 A 22.852 22.852 0 0 1 69.238 39.246 A 65.726 65.726 0 0 0 69.257 39.602 Q 69.272 39.883 69.287 40.112 A 10.388 10.388 0 0 0 72.217 41.309 A 13.575 13.575 0 0 0 74.541 41.646 A 16.025 16.025 0 0 0 75.513 41.675 A 4.973 4.973 0 0 0 76.117 41.636 A 6.472 6.472 0 0 0 76.624 41.553 A 3.686 3.686 0 0 0 77.747 41.125 A 3.224 3.224 0 0 0 78.591 40.41 A 3.717 3.717 0 0 0 78.674 40.308 A 2.434 2.434 0 0 0 79.054 39.604 A 3.33 3.33 0 0 0 79.199 39.014 A 5.802 5.802 0 0 0 79.261 38.254 Q 79.263 38.123 79.26 37.988 A 3.557 3.557 0 0 0 79.077 36.938 A 3.168 3.168 0 0 0 78.577 35.999 A 2.57 2.57 0 0 0 78.003 35.459 A 3.181 3.181 0 0 0 77.71 35.278 A 22.656 22.656 0 0 0 77.169 34.988 Q 76.68 34.734 76.062 34.436 A 100.399 100.399 0 0 0 74.531 33.715 A 111.838 111.838 0 0 0 73.999 33.472 A 105.948 105.948 0 0 0 71.964 32.571 A 97.489 97.489 0 0 0 71.899 32.544 A 109.141 109.141 0 0 0 71.172 32.235 Q 70.599 31.995 70.142 31.812 A 8.214 8.214 0 0 1 68.861 31.181 Q 67.844 30.556 67.273 29.712 A 4.817 4.817 0 0 1 66.622 28.248 Q 66.382 27.35 66.382 26.221 A 7.87 7.87 0 0 1 66.545 24.589 A 6.544 6.544 0 0 1 66.87 23.511 Q 67.358 22.29 68.396 21.436 A 6.282 6.282 0 0 1 69.622 20.655 Q 70.21 20.366 70.911 20.149 A 10.645 10.645 0 0 1 71.057 20.105 A 10.886 10.886 0 0 1 72.597 19.78 Q 73.397 19.667 74.307 19.638 A 19.984 19.984 0 0 1 74.927 19.629 Q 75.385 19.629 76.088 19.648 A 82.439 82.439 0 0 1 76.257 19.653 A 23.312 23.312 0 0 1 77.121 19.696 A 31.754 31.754 0 0 1 78.076 19.775 Q 79.077 19.873 80.237 20.056 A 24.524 24.524 0 0 1 82.275 20.47 A 27.334 27.334 0 0 1 82.617 20.557 A 63.952 63.952 0 0 0 82.604 20.785 Q 82.584 21.158 82.556 21.716 A 20.354 20.354 0 0 1 82.501 22.504 A 27.983 27.983 0 0 1 82.41 23.376 Q 82.3 24.292 82.092 25.317 A 13.084 13.084 0 0 1 81.519 27.319 L 79.321 27.197 L 79.028 23.169 A 3.443 3.443 0 0 0 78.662 22.972 Q 78.385 22.842 78.04 22.729 A 11.2 11.2 0 0 0 76.946 22.434 A 12.404 12.404 0 0 0 76.782 22.4 Q 76.123 22.266 75.476 22.192 A 13.718 13.718 0 0 0 75.017 22.148 Q 74.791 22.13 74.593 22.123 A 6.73 6.73 0 0 0 74.365 22.119 A 8.58 8.58 0 0 0 73.162 22.198 Q 72.553 22.284 72.057 22.466 A 3.589 3.589 0 0 0 71.179 22.925 A 2.573 2.573 0 0 0 70.188 24.426 Q 70.076 24.866 70.069 25.393 A 5.321 5.321 0 0 0 70.068 25.464 A 5.33 5.33 0 0 0 70.09 25.952 A 3.999 3.999 0 0 0 70.154 26.392 A 2.302 2.302 0 0 0 70.454 27.138 A 2.617 2.617 0 0 0 70.483 27.185 A 2.428 2.428 0 0 0 70.779 27.554 Q 70.932 27.712 71.124 27.862 A 4.056 4.056 0 0 0 71.179 27.905 Q 71.631 28.247 72.339 28.589 A 24.611 24.611 0 0 0 73.486 29.088 A 27.821 27.821 0 0 0 73.889 29.248 A 88.663 88.663 0 0 1 74.741 29.584 A 112.626 112.626 0 0 1 75.659 29.956 A 58.493 58.493 0 0 1 76.651 30.374 A 75.321 75.321 0 0 1 77.722 30.847 A 37.435 37.435 0 0 1 78.879 31.393 A 49.263 49.263 0 0 1 80.127 32.031 A 6.61 6.61 0 0 1 81.995 33.479 Q 83.35 35.026 83.35 37.354 Q 83.35 38.741 83.018 39.773 A 5.167 5.167 0 0 1 82.861 40.198 A 6.305 6.305 0 0 1 82.215 41.379 A 5.194 5.194 0 0 1 81.58 42.126 A 5.916 5.916 0 0 1 79.797 43.323 Q 78.809 43.75 77.783 43.958 A 12.712 12.712 0 0 1 76.188 44.18 A 11.3 11.3 0 0 1 75.793 44.202 Q 74.829 44.238 74.121 44.238 A 15.407 15.407 0 0 1 72.79 44.178 A 19.221 19.221 0 0 1 71.814 44.067 A 25.118 25.118 0 0 1 69.409 43.616 A 24.747 24.747 0 0 1 67.867 43.195 A 21.13 21.13 0 0 1 67.212 42.981 A 14.958 14.958 0 0 1 66.494 42.714 Q 66.156 42.577 65.871 42.439 A 7.007 7.007 0 0 1 65.527 42.261 A 46.977 46.977 0 0 1 65.628 41.483 A 37.995 37.995 0 0 1 65.735 40.759 A 72.641 72.641 0 0 0 65.942 39.355 A 71.158 71.158 0 0 1 66.103 38.259 A 80.816 80.816 0 0 1 66.162 37.878 A 313.616 313.616 0 0 0 66.29 37.064 A 431.239 431.239 0 0 0 66.431 36.157 Z M 143.457 32.031 L 143.457 7.642 L 139.111 7.642 L 138.843 5.493 A 4.849 4.849 0 0 1 139.014 5.426 Q 139.279 5.328 139.724 5.186 A 35.334 35.334 0 0 1 139.832 5.151 A 20.778 20.778 0 0 1 140.567 4.935 A 27.481 27.481 0 0 1 141.382 4.724 A 23.648 23.648 0 0 1 143.127 4.37 Q 144.019 4.224 144.727 4.224 Q 145.728 4.224 146.287 4.492 A 1.747 1.747 0 0 1 146.313 4.504 A 2.714 2.714 0 0 1 146.707 4.742 Q 146.98 4.943 147.144 5.188 Q 147.412 5.591 147.473 6.067 A 8.398 8.398 0 0 1 147.515 6.462 Q 147.534 6.703 147.534 6.909 L 147.534 22.461 Q 148.038 22.146 148.667 21.741 A 155.53 155.53 0 0 0 148.877 21.606 A 10.953 10.953 0 0 1 149.75 21.101 A 14.651 14.651 0 0 1 150.635 20.679 A 11.765 11.765 0 0 1 151.778 20.25 A 15.58 15.58 0 0 1 152.917 19.934 Q 154.199 19.629 155.859 19.629 A 13.214 13.214 0 0 1 157.671 19.746 Q 159.124 19.947 160.205 20.496 A 6.445 6.445 0 0 1 162.878 22.974 Q 163.843 24.585 164.185 26.88 Q 164.526 29.175 164.453 32.031 Q 164.374 34.298 164.011 36.039 A 15.037 15.037 0 0 1 163.831 36.804 Q 163.306 38.794 162.5 40.149 A 9.231 9.231 0 0 1 161.699 41.299 A 6.819 6.819 0 0 1 160.681 42.31 A 9.171 9.171 0 0 1 159.465 43.133 A 7.525 7.525 0 0 1 158.618 43.542 Q 157.568 43.97 156.555 44.104 Q 155.542 44.238 154.712 44.238 A 9.812 9.812 0 0 1 153.24 44.132 A 7.766 7.766 0 0 1 152.136 43.884 A 12.545 12.545 0 0 1 150.634 43.323 A 10.75 10.75 0 0 1 150.012 43.018 A 11.936 11.936 0 0 1 148.779 42.266 A 10.193 10.193 0 0 1 148.279 41.895 A 75.237 75.237 0 0 1 147.549 41.309 A 55.075 55.075 0 0 1 146.899 40.771 A 9.944 9.944 0 0 1 146.387 42.578 A 27.706 27.706 0 0 1 145.86 43.842 A 24.235 24.235 0 0 1 145.679 44.238 A 5.779 5.779 0 0 1 144.25 44.055 Q 143.53 43.872 143.091 43.579 A 37.928 37.928 0 0 0 143.245 41.951 A 46.159 46.159 0 0 0 143.311 40.906 A 109.576 109.576 0 0 0 143.42 37.988 A 122.157 122.157 0 0 0 143.457 34.985 L 143.457 32.031 Z M 105.688 43.53 L 105.469 41.626 Q 106.396 41.309 107.434 41.15 A 71.121 71.121 0 0 0 108.444 40.988 A 60.602 60.602 0 0 0 109.399 40.82 L 109.399 22.998 L 105.029 22.998 L 104.712 20.898 Q 105.123 20.73 105.677 20.562 A 17.965 17.965 0 0 1 106.03 20.459 Q 106.812 20.239 107.629 20.056 A 26.464 26.464 0 0 1 108.829 19.816 A 23.692 23.692 0 0 1 109.216 19.751 Q 109.733 19.669 110.134 19.642 A 5.46 5.46 0 0 1 110.498 19.629 A 6.336 6.336 0 0 1 111.095 19.655 Q 111.703 19.713 112.097 19.897 A 2.308 2.308 0 0 1 112.543 20.167 A 1.731 1.731 0 0 1 112.952 20.618 Q 113.232 21.069 113.281 21.692 A 16.165 16.165 0 0 1 113.327 22.66 A 18.51 18.51 0 0 1 113.33 22.998 L 113.33 24.878 Q 113.428 24.658 113.672 24.219 A 39.629 39.629 0 0 1 114.059 23.539 A 45.621 45.621 0 0 1 114.197 23.303 A 30.284 30.284 0 0 1 114.723 22.443 A 27.71 27.71 0 0 1 114.758 22.388 A 9.896 9.896 0 0 1 114.893 22.182 Q 115.042 21.961 115.163 21.813 A 2.551 2.551 0 0 1 115.234 21.729 A 5.734 5.734 0 0 1 117.2 20.129 A 5.246 5.246 0 0 1 118.498 19.685 Q 119.237 19.531 120.117 19.531 A 6.176 6.176 0 0 1 120.21 19.532 Q 120.314 19.534 120.45 19.538 A 20.786 20.786 0 0 1 120.581 19.543 A 16.898 16.898 0 0 1 121.034 19.569 A 19.102 19.102 0 0 1 121.191 19.58 A 16.735 16.735 0 0 1 121.826 19.641 A 3.911 3.911 0 0 1 122.108 19.683 Q 122.258 19.712 122.388 19.751 A 8.072 8.072 0 0 1 122.399 19.908 Q 122.413 20.125 122.422 20.412 A 24.29 24.29 0 0 1 122.424 20.508 A 17.835 17.835 0 0 1 122.43 20.866 Q 122.432 21.112 122.427 21.376 A 24.725 24.725 0 0 1 122.424 21.509 Q 122.412 22.046 122.375 22.595 A 12.615 12.615 0 0 1 122.323 23.186 A 9.932 9.932 0 0 1 122.266 23.608 Q 121.98 23.558 121.603 23.508 A 27.892 27.892 0 0 0 121.24 23.462 A 9.718 9.718 0 0 0 120.63 23.409 Q 120.264 23.389 119.849 23.389 Q 118.921 23.389 118.018 23.547 Q 117.114 23.706 116.382 24.023 A 5.074 5.074 0 0 0 115.187 24.724 A 4.603 4.603 0 0 0 114.795 25.073 Q 114.136 25.732 113.501 26.514 L 113.501 40.82 L 119.141 41.382 Q 119.189 41.504 119.189 41.797 L 119.189 42.261 A 7.125 7.125 0 0 1 119.172 42.748 A 8.357 8.357 0 0 1 119.153 42.981 Q 119.122 43.295 119.05 43.466 A 0.603 0.603 0 0 1 119.019 43.53 L 105.688 43.53 Z M 236.035 30.591 L 220.898 30.713 A 86.467 86.467 0 0 0 220.914 32.373 A 65.615 65.615 0 0 0 220.959 33.887 A 17.403 17.403 0 0 0 221.069 35.257 A 13.001 13.001 0 0 0 221.277 36.487 A 8.377 8.377 0 0 0 221.603 37.605 A 6.404 6.404 0 0 0 222.021 38.513 A 4.164 4.164 0 0 0 223.376 39.954 Q 224.243 40.527 225.525 40.82 A 10.507 10.507 0 0 0 226.657 41.01 Q 227.551 41.113 228.638 41.113 A 11.64 11.64 0 0 0 229.732 41.059 A 15.029 15.029 0 0 0 230.652 40.942 A 32.332 32.332 0 0 0 232.088 40.684 A 27.552 27.552 0 0 0 232.703 40.552 A 35.089 35.089 0 0 0 233.388 40.389 Q 233.928 40.254 234.363 40.125 Q 235.058 39.917 235.254 39.844 L 236.084 41.919 A 1.695 1.695 0 0 1 236.001 41.974 Q 235.78 42.112 235.205 42.419 A 9.257 9.257 0 0 1 234.628 42.701 Q 234.32 42.839 233.958 42.98 A 20.937 20.937 0 0 1 233.362 43.201 A 16.252 16.252 0 0 1 232.291 43.537 Q 231.738 43.691 231.113 43.83 A 28.39 28.39 0 0 1 230.688 43.921 A 15.197 15.197 0 0 1 228.759 44.186 A 19.174 19.174 0 0 1 227.319 44.238 A 22.537 22.537 0 0 1 224.739 44.096 A 18.39 18.39 0 0 1 223.108 43.835 A 7.692 7.692 0 0 1 220.638 42.877 A 7.154 7.154 0 0 1 219.751 42.236 A 6.691 6.691 0 0 1 218.419 40.683 Q 217.907 39.873 217.529 38.843 Q 216.724 36.646 216.699 33.032 A 32.903 32.903 0 0 1 216.698 32.807 Q 216.698 29.387 217.419 26.929 A 13.809 13.809 0 0 1 218.19 24.882 Q 218.726 23.755 219.436 22.881 A 8.516 8.516 0 0 1 219.531 22.766 A 8.096 8.096 0 0 1 222.864 20.386 A 11.243 11.243 0 0 1 225.577 19.727 A 14.232 14.232 0 0 1 227.271 19.629 Q 229.932 19.629 231.641 20.251 A 6.115 6.115 0 0 1 233.25 21.113 A 5.28 5.28 0 0 1 234.326 22.205 A 6.793 6.793 0 0 1 235.153 23.721 Q 235.492 24.573 235.681 25.61 Q 236.037 27.56 236.037 30.242 A 41.548 41.548 0 0 1 236.035 30.591 Z M 90.063 35.229 L 90.063 22.876 L 86.719 22.876 Q 86.648 22.432 86.648 22.04 A 4.027 4.027 0 0 1 86.658 21.753 Q 86.694 21.24 86.816 20.63 L 90.063 20.337 L 91.113 13.647 L 94.043 13.647 L 94.043 20.337 L 101.367 20.337 Q 101.514 21.582 101.367 22.876 L 94.043 22.876 L 94.043 35.449 A 65.146 65.146 0 0 0 94.049 36.365 Q 94.067 37.665 94.141 38.525 A 8.046 8.046 0 0 0 94.221 39.174 Q 94.335 39.855 94.556 40.271 A 1.668 1.668 0 0 0 94.884 40.709 A 1.409 1.409 0 0 0 95.471 41.04 A 3.661 3.661 0 0 0 95.921 41.136 Q 96.414 41.211 97.095 41.211 A 7.181 7.181 0 0 0 97.467 41.201 Q 97.673 41.19 97.905 41.168 A 13.898 13.898 0 0 0 98.193 41.138 A 14.465 14.465 0 0 0 99.475 40.93 A 21.887 21.887 0 0 0 100.411 40.715 A 19.261 19.261 0 0 0 100.708 40.637 A 7.779 7.779 0 0 0 101.18 40.494 Q 101.399 40.419 101.587 40.338 A 4.238 4.238 0 0 0 101.709 40.283 L 102.466 42.383 A 11.96 11.96 0 0 1 101.255 42.994 A 13.749 13.749 0 0 1 100.818 43.176 Q 99.927 43.53 98.999 43.762 A 16.694 16.694 0 0 1 97.156 44.116 A 13.906 13.906 0 0 1 95.937 44.226 A 11.853 11.853 0 0 1 95.41 44.238 Q 94.335 44.238 93.534 44.055 A 4.943 4.943 0 0 1 93.054 43.921 A 4.746 4.746 0 0 1 92.248 43.567 A 3.585 3.585 0 0 1 91.516 43.03 A 3.561 3.561 0 0 1 90.625 41.638 A 8.148 8.148 0 0 1 90.327 40.573 A 10.24 10.24 0 0 1 90.198 39.819 A 15.065 15.065 0 0 1 90.082 38.506 A 18.541 18.541 0 0 1 90.063 37.659 L 90.063 35.229 Z M 201.343 35.229 L 201.343 22.876 L 197.998 22.876 Q 197.927 22.432 197.927 22.04 A 4.027 4.027 0 0 1 197.937 21.753 Q 197.974 21.24 198.096 20.63 L 201.343 20.337 L 202.393 13.647 L 205.322 13.647 L 205.322 20.337 L 212.646 20.337 Q 212.793 21.582 212.646 22.876 L 205.322 22.876 L 205.322 35.449 A 65.146 65.146 0 0 0 205.328 36.365 Q 205.347 37.665 205.42 38.525 A 8.046 8.046 0 0 0 205.5 39.174 Q 205.614 39.855 205.835 40.271 A 1.668 1.668 0 0 0 206.163 40.709 A 1.409 1.409 0 0 0 206.75 41.04 A 3.661 3.661 0 0 0 207.201 41.136 Q 207.693 41.211 208.374 41.211 A 7.181 7.181 0 0 0 208.746 41.201 Q 208.952 41.19 209.184 41.168 A 13.898 13.898 0 0 0 209.473 41.138 A 14.465 14.465 0 0 0 210.754 40.93 A 21.887 21.887 0 0 0 211.691 40.715 A 19.261 19.261 0 0 0 211.987 40.637 A 7.779 7.779 0 0 0 212.459 40.494 Q 212.679 40.419 212.866 40.338 A 4.238 4.238 0 0 0 212.988 40.283 L 213.745 42.383 A 11.96 11.96 0 0 1 212.534 42.994 A 13.749 13.749 0 0 1 212.097 43.176 Q 211.206 43.53 210.278 43.762 A 16.694 16.694 0 0 1 208.435 44.116 A 13.906 13.906 0 0 1 207.217 44.226 A 11.853 11.853 0 0 1 206.689 44.238 Q 205.614 44.238 204.814 44.055 A 4.943 4.943 0 0 1 204.333 43.921 A 4.746 4.746 0 0 1 203.527 43.567 A 3.585 3.585 0 0 1 202.795 43.03 A 3.561 3.561 0 0 1 201.904 41.638 A 8.148 8.148 0 0 1 201.606 40.573 A 10.24 10.24 0 0 1 201.477 39.819 A 15.065 15.065 0 0 1 201.362 38.506 A 18.541 18.541 0 0 1 201.343 37.659 L 201.343 35.229 Z M 50.171 43.53 L 49.951 41.626 A 10.65 10.65 0 0 1 51.302 41.265 A 12.659 12.659 0 0 1 51.965 41.15 Q 53.052 40.991 53.979 40.82 L 53.979 22.998 L 49.829 22.998 L 49.561 20.898 A 15.116 15.116 0 0 1 49.81 20.809 Q 50.211 20.67 50.769 20.496 A 20.35 20.35 0 0 1 52.219 20.104 A 22.201 22.201 0 0 1 52.319 20.081 Q 53.125 19.897 53.906 19.763 A 11.095 11.095 0 0 1 54.461 19.681 Q 54.898 19.629 55.249 19.629 A 6.633 6.633 0 0 1 55.845 19.654 Q 56.431 19.707 56.817 19.873 A 1.869 1.869 0 0 1 56.873 19.897 A 2.684 2.684 0 0 1 57.244 20.106 Q 57.538 20.306 57.703 20.557 Q 57.959 20.947 58.008 21.411 A 26.517 26.517 0 0 1 58.048 21.825 Q 58.068 22.047 58.081 22.241 L 58.081 40.82 L 62.28 41.553 A 5.028 5.028 0 0 1 62.305 42.053 A 5.798 5.798 0 0 1 62.28 42.578 A 3.772 3.772 0 0 1 62.201 43.085 A 2.854 2.854 0 0 1 62.061 43.53 L 50.171 43.53 Z M 125.781 43.53 L 125.562 41.626 A 10.65 10.65 0 0 1 126.912 41.265 A 12.659 12.659 0 0 1 127.576 41.15 Q 128.662 40.991 129.59 40.82 L 129.59 22.998 L 125.439 22.998 L 125.171 20.898 A 15.116 15.116 0 0 1 125.42 20.809 Q 125.821 20.67 126.379 20.496 A 20.35 20.35 0 0 1 127.829 20.104 A 22.201 22.201 0 0 1 127.93 20.081 Q 128.735 19.897 129.517 19.763 A 11.095 11.095 0 0 1 130.072 19.681 Q 130.508 19.629 130.859 19.629 A 6.633 6.633 0 0 1 131.455 19.654 Q 132.041 19.707 132.427 19.873 A 1.869 1.869 0 0 1 132.483 19.897 A 2.684 2.684 0 0 1 132.854 20.106 Q 133.149 20.306 133.313 20.557 Q 133.569 20.947 133.618 21.411 A 26.517 26.517 0 0 1 133.659 21.825 Q 133.678 22.047 133.691 22.241 L 133.691 40.82 L 137.891 41.553 A 5.028 5.028 0 0 1 137.915 42.053 A 5.798 5.798 0 0 1 137.891 42.578 A 3.772 3.772 0 0 1 137.811 43.085 A 2.854 2.854 0 0 1 137.671 43.53 L 125.781 43.53 Z M 37.842 38.403 L 37.842 23.096 A 15.377 15.377 0 0 0 37.33 22.987 Q 36.796 22.881 36.07 22.767 A 53.935 53.935 0 0 0 35.828 22.729 A 17.043 17.043 0 0 0 34.144 22.562 A 20.997 20.997 0 0 0 33.057 22.534 A 14.683 14.683 0 0 0 31.434 22.618 Q 30.642 22.706 29.978 22.887 A 6.402 6.402 0 0 0 28.906 23.279 A 5.923 5.923 0 0 0 27.322 24.361 A 5.302 5.302 0 0 0 26.501 25.378 A 7.565 7.565 0 0 0 25.699 27.173 A 9.977 9.977 0 0 0 25.378 28.613 A 25.11 25.11 0 0 0 25.151 30.844 A 32.263 32.263 0 0 0 25.098 32.739 A 31.968 31.968 0 0 0 25.145 34.522 Q 25.193 35.388 25.291 36.157 A 21.078 21.078 0 0 0 25.293 36.169 Q 25.473 37.575 25.953 38.597 A 5.726 5.726 0 0 0 26.038 38.77 A 4.018 4.018 0 0 0 27.027 40.033 A 3.852 3.852 0 0 0 27.576 40.417 A 3.924 3.924 0 0 0 28.619 40.827 Q 29.081 40.94 29.62 40.975 A 7.762 7.762 0 0 0 30.127 40.991 A 8.81 8.81 0 0 0 31.33 40.905 A 10.802 10.802 0 0 0 32.092 40.771 A 15.96 15.96 0 0 0 34.155 40.186 A 19.439 19.439 0 0 0 36.133 39.355 A 18.268 18.268 0 0 0 37.142 38.826 A 14.316 14.316 0 0 0 37.842 38.403 Z M 257.715 38.403 L 257.715 23.096 A 15.377 15.377 0 0 0 257.203 22.987 Q 256.669 22.881 255.943 22.767 A 53.935 53.935 0 0 0 255.701 22.729 A 17.043 17.043 0 0 0 254.017 22.562 A 20.997 20.997 0 0 0 252.93 22.534 A 14.683 14.683 0 0 0 251.307 22.618 Q 250.515 22.706 249.851 22.887 A 6.402 6.402 0 0 0 248.779 23.279 A 5.923 5.923 0 0 0 247.196 24.361 A 5.302 5.302 0 0 0 246.375 25.378 A 7.565 7.565 0 0 0 245.572 27.173 A 9.977 9.977 0 0 0 245.251 28.613 A 25.11 25.11 0 0 0 245.024 30.844 A 32.263 32.263 0 0 0 244.971 32.739 A 31.968 31.968 0 0 0 245.018 34.522 Q 245.066 35.388 245.164 36.157 A 21.078 21.078 0 0 0 245.166 36.169 Q 245.346 37.575 245.826 38.597 A 5.726 5.726 0 0 0 245.911 38.77 A 4.018 4.018 0 0 0 246.9 40.033 A 3.852 3.852 0 0 0 247.449 40.417 A 3.924 3.924 0 0 0 248.492 40.827 Q 248.954 40.94 249.493 40.975 A 7.762 7.762 0 0 0 250 40.991 A 8.81 8.81 0 0 0 251.203 40.905 A 10.802 10.802 0 0 0 251.965 40.771 A 15.96 15.96 0 0 0 254.028 40.186 A 19.439 19.439 0 0 0 256.006 39.355 A 18.268 18.268 0 0 0 257.015 38.826 A 14.316 14.316 0 0 0 257.715 38.403 Z M 147.534 24.976 L 147.534 35.059 Q 147.534 35.474 147.485 36.279 A 131.206 131.206 0 0 0 147.437 37.127 Q 147.413 37.574 147.388 38.07 A 212.52 212.52 0 0 0 147.388 38.086 A 11.325 11.325 0 0 0 147.962 38.552 Q 148.315 38.82 148.73 39.099 Q 149.512 39.624 150.403 40.051 Q 151.294 40.479 152.271 40.759 Q 153.247 41.04 154.175 41.04 Q 155.614 41.04 156.676 40.557 A 4.555 4.555 0 0 0 156.714 40.54 A 4.273 4.273 0 0 0 158.299 39.256 A 5.218 5.218 0 0 0 158.508 38.965 A 6.268 6.268 0 0 0 159.073 37.901 Q 159.294 37.376 159.463 36.755 A 12.081 12.081 0 0 0 159.607 36.169 A 16.675 16.675 0 0 0 159.848 34.774 Q 159.951 33.992 160.007 33.097 A 33.445 33.445 0 0 0 160.059 31.982 Q 160.083 30.078 159.949 28.394 A 11.885 11.885 0 0 0 159.74 26.905 Q 159.575 26.12 159.306 25.45 A 7.491 7.491 0 0 0 159.302 25.439 A 4.879 4.879 0 0 0 158.595 24.212 A 4.214 4.214 0 0 0 157.788 23.438 Q 156.93 22.81 155.57 22.72 A 7.106 7.106 0 0 0 155.103 22.705 A 12.462 12.462 0 0 0 152.893 22.9 A 16.98 16.98 0 0 0 151.332 23.255 A 14.911 14.911 0 0 0 150.842 23.401 A 13.129 13.129 0 0 0 149.356 23.969 A 11.78 11.78 0 0 0 149.036 24.121 A 15.146 15.146 0 0 0 148.239 24.542 A 11.735 11.735 0 0 0 147.534 24.976 Z M 221.045 28.345 L 231.836 27.954 Q 231.787 25.879 231.311 24.707 A 6.156 6.156 0 0 0 230.958 23.972 Q 230.743 23.596 230.495 23.31 A 3.004 3.004 0 0 0 230.139 22.961 A 3.403 3.403 0 0 0 229.322 22.455 A 2.945 2.945 0 0 0 228.638 22.253 A 9.864 9.864 0 0 0 227.57 22.133 A 8.387 8.387 0 0 0 227.1 22.119 Q 225.885 22.119 224.963 22.327 A 5.955 5.955 0 0 0 224.426 22.473 A 4.474 4.474 0 0 0 223.283 23.026 A 3.895 3.895 0 0 0 222.632 23.584 A 4.409 4.409 0 0 0 221.912 24.633 A 5.871 5.871 0 0 0 221.558 25.525 A 10.848 10.848 0 0 0 221.279 26.647 Q 221.165 27.23 221.09 27.894 A 19.689 19.689 0 0 0 221.045 28.345 Z M 54.688 14.005 A 4.583 4.583 0 0 0 55.566 14.087 A 4.781 4.781 0 0 0 55.926 14.074 A 3.945 3.945 0 0 0 56.653 13.953 A 2.281 2.281 0 0 0 57.544 13.489 A 2.004 2.004 0 0 0 57.873 13.134 A 2.431 2.431 0 0 0 58.154 12.622 A 2.434 2.434 0 0 0 58.24 12.373 Q 58.374 11.908 58.374 11.279 Q 58.374 10.474 58.154 9.937 A 2.605 2.605 0 0 0 58.017 9.651 A 2.078 2.078 0 0 0 57.544 9.07 Q 57.153 8.74 56.653 8.606 A 3.743 3.743 0 0 0 56.264 8.524 A 4.489 4.489 0 0 0 55.566 8.472 A 4.993 4.993 0 0 0 55.385 8.475 A 4.383 4.383 0 0 0 54.456 8.606 Q 53.931 8.74 53.54 9.07 A 2.004 2.004 0 0 0 53.211 9.424 A 2.431 2.431 0 0 0 52.93 9.937 A 2.434 2.434 0 0 0 52.844 10.186 Q 52.71 10.651 52.71 11.279 Q 52.71 12.085 52.93 12.622 A 2.605 2.605 0 0 0 53.067 12.908 A 2.078 2.078 0 0 0 53.54 13.489 A 2.194 2.194 0 0 0 53.691 13.605 A 2.306 2.306 0 0 0 54.456 13.953 A 4.113 4.113 0 0 0 54.688 14.005 Z M 130.298 14.005 A 4.583 4.583 0 0 0 131.177 14.087 A 4.781 4.781 0 0 0 131.537 14.074 A 3.945 3.945 0 0 0 132.263 13.953 A 2.281 2.281 0 0 0 133.154 13.489 A 2.004 2.004 0 0 0 133.483 13.134 A 2.431 2.431 0 0 0 133.765 12.622 A 2.434 2.434 0 0 0 133.851 12.373 Q 133.984 11.908 133.984 11.279 Q 133.984 10.474 133.765 9.937 A 2.605 2.605 0 0 0 133.628 9.651 A 2.078 2.078 0 0 0 133.154 9.07 Q 132.764 8.74 132.263 8.606 A 3.743 3.743 0 0 0 131.875 8.524 A 4.489 4.489 0 0 0 131.177 8.472 A 4.993 4.993 0 0 0 130.995 8.475 A 4.383 4.383 0 0 0 130.066 8.606 Q 129.541 8.74 129.15 9.07 A 2.004 2.004 0 0 0 128.822 9.424 A 2.431 2.431 0 0 0 128.54 9.937 A 2.434 2.434 0 0 0 128.454 10.186 Q 128.32 10.651 128.32 11.279 Q 128.32 12.085 128.54 12.622 A 2.605 2.605 0 0 0 128.677 12.908 A 2.078 2.078 0 0 0 129.15 13.489 A 2.194 2.194 0 0 0 129.302 13.605 A 2.306 2.306 0 0 0 130.066 13.953 A 4.113 4.113 0 0 0 130.298 14.005 Z" vector-effect="non-scaling-stroke"/></g></svg>