<svg width="308.618" height="56.299" viewBox="0 0 308.618 56.299" xmlns="http://www.w3.org/2000/svg"><g id="svgGroup" stroke-linecap="round" fill-rule="evenodd" font-size="9pt" stroke="#000" stroke-width="0.25mm" fill="black" style="stroke:#000;stroke-width:0.25mm;fill:black"><path d="M 45.386 43.53 L 45.166 41.626 Q 46.069 41.309 47.058 41.15 A 84.966 84.966 0 0 0 48.858 40.842 A 77.692 77.692 0 0 0 48.975 40.82 L 48.975 22.998 L 44.775 22.998 L 44.482 20.898 A 5.544 5.544 0 0 1 44.653 20.831 Q 44.929 20.727 45.397 20.573 A 38.601 38.601 0 0 1 45.447 20.557 A 18.158 18.158 0 0 1 46.161 20.34 A 24.699 24.699 0 0 1 46.96 20.129 A 23.54 23.54 0 0 1 48.669 19.775 A 11.25 11.25 0 0 1 49.472 19.668 Q 49.866 19.63 50.221 19.629 A 6.887 6.887 0 0 1 50.244 19.629 Q 51.206 19.629 51.749 19.865 A 1.741 1.741 0 0 1 51.819 19.897 Q 52.277 20.121 52.531 20.43 A 1.452 1.452 0 0 1 52.625 20.557 Q 52.881 20.947 52.917 21.411 Q 52.952 21.844 52.954 22.192 A 7.515 7.515 0 0 1 52.954 22.241 L 52.954 22.656 A 30.043 30.043 0 0 1 54.171 21.822 A 24.236 24.236 0 0 1 54.968 21.326 A 13.55 13.55 0 0 1 56.505 20.535 A 12.061 12.061 0 0 1 56.897 20.374 Q 57.861 19.995 58.862 19.812 A 11.443 11.443 0 0 1 60.621 19.633 A 12.914 12.914 0 0 1 60.962 19.629 A 18.803 18.803 0 0 1 62.136 19.664 Q 62.767 19.703 63.318 19.788 A 7.329 7.329 0 0 1 64.232 19.985 A 5.382 5.382 0 0 1 65.125 20.325 A 3.881 3.881 0 0 1 66.205 21.101 A 3.662 3.662 0 0 1 66.406 21.326 Q 66.911 21.939 67.227 22.872 A 6.91 6.91 0 0 1 67.236 22.9 L 67.773 22.534 A 25.978 25.978 0 0 1 69.32 21.566 A 22.558 22.558 0 0 1 69.836 21.277 A 15.492 15.492 0 0 1 71.475 20.505 A 13.816 13.816 0 0 1 71.851 20.361 Q 72.852 19.995 73.889 19.812 A 12.302 12.302 0 0 1 75.84 19.631 A 13.632 13.632 0 0 1 76.05 19.629 A 18.071 18.071 0 0 1 77.409 19.677 Q 78.067 19.727 78.631 19.828 A 8.547 8.547 0 0 1 79.285 19.971 A 4.719 4.719 0 0 1 80.43 20.428 A 3.823 3.823 0 0 1 81.384 21.191 A 4.231 4.231 0 0 1 82.056 22.213 Q 82.346 22.821 82.52 23.596 Q 82.752 24.633 82.826 26.06 A 27.526 27.526 0 0 1 82.861 27.49 L 82.861 40.894 L 86.67 41.553 A 0.907 0.907 0 0 1 86.707 41.711 Q 86.717 41.786 86.719 41.87 A 1.526 1.526 0 0 1 86.719 41.895 L 86.719 42.261 Q 86.719 42.603 86.621 42.981 A 4.824 4.824 0 0 1 86.572 43.157 Q 86.518 43.34 86.463 43.458 A 0.969 0.969 0 0 1 86.426 43.53 L 75.635 43.53 L 75.439 41.626 A 10.097 10.097 0 0 1 76.372 41.337 A 7.853 7.853 0 0 1 77.1 41.187 A 37.772 37.772 0 0 0 78.287 40.981 A 43.648 43.648 0 0 0 78.735 40.894 L 78.735 27.734 A 15.45 15.45 0 0 0 78.71 26.817 Q 78.667 26.097 78.552 25.525 Q 78.391 24.72 78.032 24.179 A 2.619 2.619 0 0 0 77.93 24.036 Q 77.49 23.462 76.782 23.193 A 3.797 3.797 0 0 0 76.102 23.01 Q 75.76 22.949 75.365 22.932 A 7.274 7.274 0 0 0 75.049 22.925 A 21.767 21.767 0 0 0 73.996 22.949 A 16.699 16.699 0 0 0 73.035 23.022 A 14.5 14.5 0 0 0 71.603 23.246 A 12.947 12.947 0 0 0 71.289 23.315 A 12.48 12.48 0 0 0 69.666 23.816 A 20.133 20.133 0 0 0 68.546 24.287 A 23.768 23.768 0 0 0 68.018 24.536 L 67.627 24.731 A 19.649 19.649 0 0 1 67.736 26.01 Q 67.771 26.665 67.773 27.393 A 31.974 31.974 0 0 1 67.773 27.49 L 67.773 40.894 L 71.582 41.553 A 1.124 1.124 0 0 1 71.621 41.706 Q 71.635 41.783 71.641 41.87 A 1.892 1.892 0 0 1 71.643 41.895 A 6.355 6.355 0 0 1 71.654 42.129 A 5.181 5.181 0 0 1 71.655 42.261 Q 71.655 42.603 71.558 42.981 A 4.824 4.824 0 0 1 71.509 43.157 Q 71.454 43.34 71.4 43.458 A 0.969 0.969 0 0 1 71.362 43.53 L 60.571 43.53 L 60.4 41.626 A 9.051 9.051 0 0 1 61.445 41.306 A 7.488 7.488 0 0 1 62.048 41.187 A 36.319 36.319 0 0 0 63.273 40.976 A 41.046 41.046 0 0 0 63.696 40.894 L 63.696 27.734 A 14.792 14.792 0 0 0 63.666 26.761 Q 63.622 26.093 63.513 25.549 Q 63.33 24.634 62.891 24.048 A 2.518 2.518 0 0 0 61.743 23.193 A 3.797 3.797 0 0 0 61.063 23.01 Q 60.721 22.949 60.326 22.932 A 7.274 7.274 0 0 0 60.01 22.925 A 21.767 21.767 0 0 0 58.957 22.949 A 16.699 16.699 0 0 0 57.996 23.022 A 14.5 14.5 0 0 0 56.564 23.246 A 12.947 12.947 0 0 0 56.25 23.315 A 13.823 13.823 0 0 0 54.626 23.804 A 26.123 26.123 0 0 0 53.601 24.208 A 31.644 31.644 0 0 0 52.954 24.487 L 52.954 40.82 L 56.934 41.553 A 0.907 0.907 0 0 1 56.97 41.711 Q 56.981 41.786 56.982 41.87 A 1.526 1.526 0 0 1 56.982 41.895 L 56.982 42.261 A 3.065 3.065 0 0 1 56.946 42.725 A 3.722 3.722 0 0 1 56.897 42.981 A 4.277 4.277 0 0 1 56.853 43.157 Q 56.787 43.402 56.714 43.53 L 45.386 43.53 Z M 6.641 48.12 L 6.641 34.131 Q 6.641 33.804 6.6 33.559 A 2.003 2.003 0 0 0 6.567 33.398 A 1.511 1.511 0 0 0 6.465 33.111 A 1.212 1.212 0 0 0 6.335 32.898 A 1.688 1.688 0 0 0 6.084 32.636 A 2.078 2.078 0 0 0 5.933 32.52 A 9.616 9.616 0 0 0 5.679 32.348 Q 5.535 32.254 5.371 32.153 L 0 29.102 L 0 26.685 L 5.835 23.267 A 1.666 1.666 0 0 0 6.202 22.964 A 1.327 1.327 0 0 0 6.494 22.437 A 3.802 3.802 0 0 0 6.623 21.722 A 4.692 4.692 0 0 0 6.641 21.313 L 6.641 8.154 Q 6.641 7.056 6.885 5.847 A 4.964 4.964 0 0 1 7.51 4.267 A 6.401 6.401 0 0 1 8.032 3.528 A 6.312 6.312 0 0 1 8.949 2.623 Q 9.43 2.231 10.036 1.865 A 12.772 12.772 0 0 1 10.706 1.489 Q 11.944 0.84 13.81 0.37 A 27.224 27.224 0 0 1 15.527 0 L 16.333 2.026 L 12.598 4.053 Q 12.074 4.402 11.686 4.732 A 6.736 6.736 0 0 0 11.597 4.81 A 3.602 3.602 0 0 0 11.024 5.446 A 3.282 3.282 0 0 0 10.913 5.615 A 2.887 2.887 0 0 0 10.646 6.193 A 3.762 3.762 0 0 0 10.522 6.653 A 5.523 5.523 0 0 0 10.441 7.199 Q 10.413 7.475 10.404 7.789 A 10.457 10.457 0 0 0 10.4 8.081 L 10.4 20.679 Q 10.4 21.777 10.278 22.607 A 6.053 6.053 0 0 1 10.12 23.363 A 4.478 4.478 0 0 1 9.863 24.06 A 3.824 3.824 0 0 1 9.106 25.146 A 4.37 4.37 0 0 1 8.479 25.662 A 5.652 5.652 0 0 1 7.959 25.977 L 4.175 28.003 L 7.861 29.834 A 4.737 4.737 0 0 1 9.717 31.628 Q 10.256 32.543 10.37 33.922 A 9.372 9.372 0 0 1 10.4 34.692 L 10.4 48.071 Q 10.4 48.726 10.472 49.229 A 4.963 4.963 0 0 0 10.522 49.524 A 4.097 4.097 0 0 0 10.702 50.154 A 3.314 3.314 0 0 0 10.901 50.586 A 3.107 3.107 0 0 0 11.572 51.416 A 4.932 4.932 0 0 0 12.02 51.765 Q 12.283 51.948 12.598 52.124 L 16.455 54.37 L 15.527 56.274 A 26.285 26.285 0 0 1 13.745 55.901 Q 12.834 55.674 12.074 55.401 A 10.839 10.839 0 0 1 10.706 54.81 A 11.678 11.678 0 0 1 9.511 54.096 Q 8.942 53.704 8.507 53.285 A 5.779 5.779 0 0 1 8.032 52.771 Q 7.129 51.66 6.885 50.439 A 12.711 12.711 0 0 1 6.675 48.961 A 10.548 10.548 0 0 1 6.641 48.12 Z M 298.218 48.218 L 298.218 35.62 Q 298.218 34.521 298.34 33.691 A 6.053 6.053 0 0 1 298.498 32.936 A 4.478 4.478 0 0 1 298.755 32.239 A 3.824 3.824 0 0 1 299.512 31.152 A 4.37 4.37 0 0 1 300.139 30.637 A 5.652 5.652 0 0 1 300.659 30.322 L 304.443 28.296 L 300.757 26.465 A 4.737 4.737 0 0 1 298.901 24.67 Q 298.362 23.755 298.248 22.377 A 9.372 9.372 0 0 1 298.218 21.606 L 298.218 8.228 Q 298.218 7.397 298.096 6.787 A 4.177 4.177 0 0 0 297.928 6.18 A 3.276 3.276 0 0 0 297.717 5.713 A 3.107 3.107 0 0 0 297.046 4.883 A 4.932 4.932 0 0 0 296.598 4.534 Q 296.335 4.351 296.021 4.175 L 292.163 1.929 L 293.091 0.024 A 26.285 26.285 0 0 1 294.873 0.398 Q 295.784 0.625 296.544 0.898 A 10.839 10.839 0 0 1 297.913 1.489 Q 299.294 2.213 300.147 3.056 A 5.72 5.72 0 0 1 300.586 3.54 A 6.211 6.211 0 0 1 301.315 4.666 A 4.869 4.869 0 0 1 301.733 5.872 Q 301.978 7.08 301.978 8.179 L 301.978 22.168 Q 301.978 22.494 302.018 22.74 A 2.003 2.003 0 0 0 302.051 22.9 A 1.511 1.511 0 0 0 302.153 23.188 A 1.212 1.212 0 0 0 302.283 23.401 A 1.852 1.852 0 0 0 302.562 23.692 A 2.171 2.171 0 0 0 302.673 23.779 Q 302.851 23.91 303.093 24.055 A 8.437 8.437 0 0 0 303.247 24.146 L 308.618 27.197 L 308.618 29.614 L 302.783 33.032 A 1.666 1.666 0 0 0 302.416 33.335 A 1.327 1.327 0 0 0 302.124 33.862 A 3.802 3.802 0 0 0 301.995 34.577 A 4.692 4.692 0 0 0 301.978 34.985 L 301.978 48.145 A 12.019 12.019 0 0 1 301.905 49.439 A 13.428 13.428 0 0 1 301.88 49.658 A 6.57 6.57 0 0 1 301.567 50.985 A 7.46 7.46 0 0 1 301.477 51.233 A 5.681 5.681 0 0 1 300.877 52.372 A 6.774 6.774 0 0 1 300.586 52.771 A 5.831 5.831 0 0 1 299.899 53.497 Q 299.555 53.807 299.133 54.103 A 9.733 9.733 0 0 1 299.011 54.187 A 9.12 9.12 0 0 1 298.057 54.749 Q 297.387 55.093 296.57 55.396 A 16.296 16.296 0 0 1 295.189 55.833 Q 294.47 56.028 293.649 56.192 A 29.701 29.701 0 0 1 293.091 56.299 L 292.285 54.272 L 296.021 52.246 Q 296.545 51.897 296.932 51.567 A 6.736 6.736 0 0 0 297.021 51.489 A 3.602 3.602 0 0 0 297.595 50.852 A 3.282 3.282 0 0 0 297.705 50.684 A 2.943 2.943 0 0 0 297.984 50.077 A 3.729 3.729 0 0 0 298.096 49.658 A 5.117 5.117 0 0 0 298.17 49.181 Q 298.218 48.752 298.218 48.218 Z M 159.229 20.679 L 159.229 7.642 L 154.541 7.642 L 154.272 5.542 Q 154.565 5.42 155.322 5.212 A 33.85 33.85 0 0 1 156.119 5.005 A 44.27 44.27 0 0 1 156.995 4.797 A 32.958 32.958 0 0 1 158.862 4.431 A 13.927 13.927 0 0 1 159.539 4.334 Q 159.871 4.296 160.163 4.281 A 6.745 6.745 0 0 1 160.498 4.272 Q 161.46 4.272 162.003 4.509 A 1.741 1.741 0 0 1 162.073 4.541 A 2.613 2.613 0 0 1 162.488 4.792 Q 162.741 4.98 162.903 5.212 A 1.942 1.942 0 0 1 163.245 6.079 A 16.046 16.046 0 0 1 163.291 6.466 Q 163.31 6.644 163.322 6.804 A 9.488 9.488 0 0 1 163.33 6.909 L 163.33 40.942 L 168.042 40.942 L 168.237 42.969 A 4.849 4.849 0 0 1 168.066 43.036 Q 167.802 43.134 167.356 43.276 A 35.334 35.334 0 0 1 167.249 43.311 A 21.897 21.897 0 0 1 166.516 43.527 A 28.379 28.379 0 0 1 165.71 43.738 A 22.501 22.501 0 0 1 163.977 44.092 Q 163.086 44.238 162.402 44.238 Q 161.751 44.238 161.28 44.119 A 2.325 2.325 0 0 1 160.828 43.958 Q 160.254 43.677 159.973 43.274 Q 159.692 42.871 159.631 42.395 A 8.398 8.398 0 0 1 159.59 41.999 Q 159.57 41.759 159.57 41.553 L 159.57 40.723 L 159.497 40.723 A 9.119 9.119 0 0 1 158.879 41.205 Q 158.537 41.45 158.133 41.701 A 17.53 17.53 0 0 1 157.751 41.931 A 18.396 18.396 0 0 1 155.913 42.87 A 20.834 20.834 0 0 1 155.457 43.066 A 18.011 18.011 0 0 1 152.905 43.909 A 11.355 11.355 0 0 1 151.468 44.175 A 9.09 9.09 0 0 1 150.415 44.238 A 12.288 12.288 0 0 1 148.722 44.129 Q 147.83 44.004 147.092 43.739 A 5.921 5.921 0 0 1 146.155 43.311 Q 144.531 42.383 143.64 40.808 A 9.399 9.399 0 0 1 142.76 38.635 A 12.085 12.085 0 0 1 142.456 37.134 A 30.902 30.902 0 0 1 142.184 33.918 A 35.981 35.981 0 0 1 142.163 32.69 Q 142.163 29.248 142.932 26.782 A 12.462 12.462 0 0 1 143.803 24.661 A 9.432 9.432 0 0 1 145.154 22.717 A 8.589 8.589 0 0 1 148.718 20.374 A 12.765 12.765 0 0 1 151.276 19.771 A 16.892 16.892 0 0 1 153.516 19.629 A 12.909 12.909 0 0 1 153.924 19.636 Q 154.285 19.647 154.712 19.678 A 15.566 15.566 0 0 1 155.686 19.779 A 18.408 18.408 0 0 1 156.152 19.849 A 16.33 16.33 0 0 1 157.505 20.128 A 18.089 18.089 0 0 1 157.703 20.178 Q 158.496 20.386 159.229 20.679 Z M 188.354 20.679 L 188.354 7.642 L 183.667 7.642 L 183.398 5.542 Q 183.691 5.42 184.448 5.212 A 33.85 33.85 0 0 1 185.245 5.005 A 44.27 44.27 0 0 1 186.121 4.797 A 32.958 32.958 0 0 1 187.988 4.431 A 13.927 13.927 0 0 1 188.665 4.334 Q 188.997 4.296 189.289 4.281 A 6.745 6.745 0 0 1 189.624 4.272 Q 190.586 4.272 191.129 4.509 A 1.741 1.741 0 0 1 191.199 4.541 A 2.613 2.613 0 0 1 191.614 4.792 Q 191.866 4.98 192.029 5.212 A 1.942 1.942 0 0 1 192.371 6.079 A 16.046 16.046 0 0 1 192.417 6.466 Q 192.436 6.644 192.448 6.804 A 9.488 9.488 0 0 1 192.456 6.909 L 192.456 40.942 L 197.168 40.942 L 197.363 42.969 A 4.849 4.849 0 0 1 197.192 43.036 Q 196.928 43.134 196.482 43.276 A 35.334 35.334 0 0 1 196.375 43.311 A 21.897 21.897 0 0 1 195.642 43.527 A 28.379 28.379 0 0 1 194.836 43.738 A 22.501 22.501 0 0 1 193.103 44.092 Q 192.212 44.238 191.528 44.238 Q 190.877 44.238 190.406 44.119 A 2.325 2.325 0 0 1 189.954 43.958 Q 189.38 43.677 189.099 43.274 Q 188.818 42.871 188.757 42.395 A 8.398 8.398 0 0 1 188.716 41.999 Q 188.696 41.759 188.696 41.553 L 188.696 40.723 L 188.623 40.723 A 9.119 9.119 0 0 1 188.005 41.205 Q 187.663 41.45 187.259 41.701 A 17.53 17.53 0 0 1 186.877 41.931 A 18.396 18.396 0 0 1 185.039 42.87 A 20.834 20.834 0 0 1 184.583 43.066 A 18.011 18.011 0 0 1 182.031 43.909 A 11.355 11.355 0 0 1 180.594 44.175 A 9.09 9.09 0 0 1 179.541 44.238 A 12.288 12.288 0 0 1 177.848 44.129 Q 176.956 44.004 176.218 43.739 A 5.921 5.921 0 0 1 175.281 43.311 Q 173.657 42.383 172.766 40.808 A 9.399 9.399 0 0 1 171.886 38.635 A 12.085 12.085 0 0 1 171.582 37.134 A 30.902 30.902 0 0 1 171.31 33.918 A 35.981 35.981 0 0 1 171.289 32.69 Q 171.289 29.248 172.058 26.782 A 12.462 12.462 0 0 1 172.929 24.661 A 9.432 9.432 0 0 1 174.28 22.717 A 8.589 8.589 0 0 1 177.844 20.374 A 12.765 12.765 0 0 1 180.402 19.771 A 16.892 16.892 0 0 1 182.642 19.629 A 12.909 12.909 0 0 1 183.05 19.636 Q 183.411 19.647 183.838 19.678 A 15.566 15.566 0 0 1 184.812 19.779 A 18.408 18.408 0 0 1 185.278 19.849 A 16.33 16.33 0 0 1 186.631 20.128 A 18.089 18.089 0 0 1 186.829 20.178 Q 187.622 20.386 188.354 20.679 Z M 92.31 32.031 L 92.31 7.642 L 87.964 7.642 L 87.695 5.493 A 4.849 4.849 0 0 1 87.867 5.426 Q 88.131 5.328 88.577 5.186 A 35.334 35.334 0 0 1 88.684 5.151 A 20.778 20.778 0 0 1 89.42 4.935 A 27.481 27.481 0 0 1 90.234 4.724 A 23.648 23.648 0 0 1 91.98 4.37 Q 92.871 4.224 93.579 4.224 Q 94.581 4.224 95.14 4.492 A 1.747 1.747 0 0 1 95.166 4.504 A 2.714 2.714 0 0 1 95.56 4.742 Q 95.832 4.943 95.996 5.188 Q 96.265 5.591 96.326 6.067 A 8.398 8.398 0 0 1 96.367 6.462 Q 96.387 6.703 96.387 6.909 L 96.387 22.461 Q 96.89 22.146 97.52 21.741 A 155.53 155.53 0 0 0 97.729 21.606 A 10.953 10.953 0 0 1 98.603 21.101 A 14.651 14.651 0 0 1 99.487 20.679 A 11.765 11.765 0 0 1 100.63 20.25 A 15.58 15.58 0 0 1 101.77 19.934 Q 103.052 19.629 104.712 19.629 A 13.214 13.214 0 0 1 106.523 19.746 Q 107.976 19.947 109.058 20.496 A 6.445 6.445 0 0 1 111.731 22.974 Q 112.695 24.585 113.037 26.88 Q 113.379 29.175 113.306 32.031 Q 113.226 34.298 112.863 36.039 A 15.037 15.037 0 0 1 112.683 36.804 Q 112.158 38.794 111.353 40.149 A 9.231 9.231 0 0 1 110.552 41.299 A 6.819 6.819 0 0 1 109.534 42.31 A 9.171 9.171 0 0 1 108.318 43.133 A 7.525 7.525 0 0 1 107.471 43.542 Q 106.421 43.97 105.408 44.104 Q 104.395 44.238 103.564 44.238 A 9.812 9.812 0 0 1 102.092 44.132 A 7.766 7.766 0 0 1 100.989 43.884 A 12.545 12.545 0 0 1 99.487 43.323 A 10.75 10.75 0 0 1 98.865 43.018 A 11.936 11.936 0 0 1 97.631 42.266 A 10.193 10.193 0 0 1 97.131 41.895 A 75.237 75.237 0 0 1 96.402 41.309 A 55.075 55.075 0 0 1 95.752 40.771 A 9.944 9.944 0 0 1 95.239 42.578 A 27.706 27.706 0 0 1 94.713 43.842 A 24.235 24.235 0 0 1 94.531 44.238 A 5.779 5.779 0 0 1 93.103 44.055 Q 92.383 43.872 91.943 43.579 A 37.928 37.928 0 0 0 92.098 41.951 A 46.159 46.159 0 0 0 92.163 40.906 A 109.576 109.576 0 0 0 92.273 37.988 A 122.157 122.157 0 0 0 92.31 34.985 L 92.31 32.031 Z M 227.075 32.031 L 227.075 7.642 L 222.729 7.642 L 222.461 5.493 A 4.849 4.849 0 0 1 222.633 5.426 Q 222.897 5.328 223.342 5.186 A 35.334 35.334 0 0 1 223.45 5.151 A 20.778 20.778 0 0 1 224.185 4.935 A 27.481 27.481 0 0 1 225 4.724 A 23.648 23.648 0 0 1 226.746 4.37 Q 227.637 4.224 228.345 4.224 Q 229.347 4.224 229.906 4.492 A 1.747 1.747 0 0 1 229.932 4.504 A 2.714 2.714 0 0 1 230.326 4.742 Q 230.598 4.943 230.762 5.188 Q 231.03 5.591 231.091 6.067 A 8.398 8.398 0 0 1 231.133 6.462 Q 231.152 6.703 231.152 6.909 L 231.152 22.461 Q 231.656 22.146 232.286 21.741 A 155.53 155.53 0 0 0 232.495 21.606 A 10.953 10.953 0 0 1 233.368 21.101 A 14.651 14.651 0 0 1 234.253 20.679 A 11.765 11.765 0 0 1 235.396 20.25 A 15.58 15.58 0 0 1 236.536 19.934 Q 237.817 19.629 239.478 19.629 A 13.214 13.214 0 0 1 241.289 19.746 Q 242.742 19.947 243.823 20.496 A 6.445 6.445 0 0 1 246.497 22.974 Q 247.461 24.585 247.803 26.88 Q 248.145 29.175 248.071 32.031 Q 247.992 34.298 247.629 36.039 A 15.037 15.037 0 0 1 247.449 36.804 Q 246.924 38.794 246.118 40.149 A 9.231 9.231 0 0 1 245.317 41.299 A 6.819 6.819 0 0 1 244.299 42.31 A 9.171 9.171 0 0 1 243.083 43.133 A 7.525 7.525 0 0 1 242.236 43.542 Q 241.187 43.97 240.173 44.104 Q 239.16 44.238 238.33 44.238 A 9.812 9.812 0 0 1 236.858 44.132 A 7.766 7.766 0 0 1 235.754 43.884 A 12.545 12.545 0 0 1 234.252 43.323 A 10.75 10.75 0 0 1 233.63 43.018 A 11.936 11.936 0 0 1 232.397 42.266 A 10.193 10.193 0 0 1 231.897 41.895 A 75.237 75.237 0 0 1 231.168 41.309 A 55.075 55.075 0 0 1 230.518 40.771 A 9.944 9.944 0 0 1 230.005 42.578 A 27.706 27.706 0 0 1 229.478 43.842 A 24.235 24.235 0 0 1 229.297 44.238 A 5.779 5.779 0 0 1 227.869 44.055 Q 227.148 43.872 226.709 43.579 A 37.928 37.928 0 0 0 226.863 41.951 A 46.159 46.159 0 0 0 226.929 40.906 A 109.576 109.576 0 0 0 227.039 37.988 A 122.157 122.157 0 0 0 227.075 34.985 L 227.075 32.031 Z M 200 38.574 L 200 38.086 A 8.581 8.581 0 0 1 200.207 36.525 Q 200.419 35.614 200.839 34.89 A 5.018 5.018 0 0 1 201.05 34.558 A 6.763 6.763 0 0 1 203.393 32.465 A 7.943 7.943 0 0 1 203.589 32.361 A 11.115 11.115 0 0 1 205.437 31.619 A 15.191 15.191 0 0 1 207.336 31.177 A 38.802 38.802 0 0 1 209.895 30.834 A 49.193 49.193 0 0 1 212.061 30.664 L 213.721 30.542 L 213.721 28.003 A 19.291 19.291 0 0 0 213.684 27.044 Q 213.62 26.058 213.452 25.378 A 3.991 3.991 0 0 0 213.223 24.7 Q 213.05 24.316 212.806 24.031 A 2.283 2.283 0 0 0 212.634 23.853 A 2.506 2.506 0 0 0 211.828 23.353 Q 211.506 23.227 211.121 23.161 A 4.356 4.356 0 0 0 211.096 23.157 A 10.497 10.497 0 0 0 210.309 23.06 Q 209.601 22.998 208.716 22.998 A 13.339 13.339 0 0 0 205.518 23.376 A 29.562 29.562 0 0 0 202.441 24.316 L 201.44 21.948 Q 201.733 21.791 202.387 21.457 A 152.162 152.162 0 0 1 202.502 21.399 A 12.256 12.256 0 0 1 203.107 21.113 Q 203.446 20.964 203.836 20.812 A 23.414 23.414 0 0 1 204.321 20.63 A 16.715 16.715 0 0 1 205.472 20.261 Q 206.08 20.088 206.764 19.936 A 28.668 28.668 0 0 1 206.775 19.934 A 12.851 12.851 0 0 1 208.59 19.672 A 15.709 15.709 0 0 1 209.766 19.629 A 20.65 20.65 0 0 1 211.38 19.688 Q 212.151 19.749 212.81 19.871 A 9.473 9.473 0 0 1 213.66 20.068 A 6.057 6.057 0 0 1 214.892 20.56 A 4.527 4.527 0 0 1 216.113 21.509 A 4.957 4.957 0 0 1 216.96 22.836 Q 217.214 23.411 217.373 24.101 A 8.424 8.424 0 0 1 217.383 24.146 A 13.357 13.357 0 0 1 217.606 25.479 Q 217.693 26.21 217.727 27.051 A 27.787 27.787 0 0 1 217.749 28.174 L 217.749 40.942 L 222.314 40.942 L 222.485 42.969 A 5.988 5.988 0 0 1 222.316 43.036 Q 222.042 43.14 221.582 43.294 A 40.041 40.041 0 0 1 221.533 43.311 A 19.231 19.231 0 0 1 220.837 43.527 A 25.19 25.19 0 0 1 220.068 43.738 A 20.625 20.625 0 0 1 218.408 44.092 Q 217.629 44.225 216.992 44.237 A 6.593 6.593 0 0 1 216.87 44.238 A 6.062 6.062 0 0 1 216.273 44.211 Q 215.665 44.151 215.271 43.958 Q 214.697 43.677 214.417 43.274 Q 214.136 42.871 214.075 42.395 A 8.398 8.398 0 0 1 214.033 41.999 Q 214.014 41.759 214.014 41.553 L 214.014 40.405 L 213.965 40.405 Q 213.461 40.909 212.768 41.484 A 26.09 26.09 0 0 1 212.537 41.675 A 12.203 12.203 0 0 1 210.985 42.741 A 13.736 13.736 0 0 1 210.669 42.92 A 12.228 12.228 0 0 1 208.744 43.762 A 13.705 13.705 0 0 1 208.447 43.86 A 8.207 8.207 0 0 1 205.957 44.238 A 9.432 9.432 0 0 1 204.29 44.085 A 10.763 10.763 0 0 1 203.894 44.006 Q 202.832 43.774 201.965 43.14 A 4.426 4.426 0 0 1 200.903 42.018 A 5.589 5.589 0 0 1 200.549 41.406 A 4.713 4.713 0 0 1 200.179 40.345 Q 200 39.563 200 38.574 Z M 252.686 43.53 L 252.466 41.626 A 18.245 18.245 0 0 1 253.919 41.271 A 20.805 20.805 0 0 1 254.431 41.174 A 289.885 289.885 0 0 0 255.441 40.994 A 245.611 245.611 0 0 0 256.396 40.82 L 256.396 7.642 L 251.88 7.642 L 251.587 5.493 A 3.933 3.933 0 0 1 251.762 5.426 Q 252.066 5.316 252.625 5.151 A 25.811 25.811 0 0 1 253.406 4.935 A 33.015 33.015 0 0 1 254.26 4.724 A 25.666 25.666 0 0 1 256.079 4.37 Q 257.007 4.224 257.715 4.224 Q 258.717 4.224 259.276 4.492 A 1.747 1.747 0 0 1 259.302 4.504 A 2.714 2.714 0 0 1 259.696 4.742 Q 259.968 4.943 260.132 5.188 Q 260.4 5.591 260.461 6.067 A 8.398 8.398 0 0 1 260.503 6.462 Q 260.522 6.703 260.522 6.909 L 260.522 40.82 L 264.746 41.553 A 3.382 3.382 0 0 1 264.802 42.159 A 3.135 3.135 0 0 1 264.771 42.603 A 7.504 7.504 0 0 1 264.679 43.12 A 5.725 5.725 0 0 1 264.575 43.53 L 252.686 43.53 Z M 40.161 30.591 L 25.024 30.713 A 86.467 86.467 0 0 0 25.04 32.373 A 65.615 65.615 0 0 0 25.085 33.887 A 17.403 17.403 0 0 0 25.195 35.257 A 13.001 13.001 0 0 0 25.403 36.487 A 8.377 8.377 0 0 0 25.729 37.605 A 6.404 6.404 0 0 0 26.147 38.513 A 4.164 4.164 0 0 0 27.502 39.954 Q 28.369 40.527 29.651 40.82 A 10.507 10.507 0 0 0 30.783 41.01 Q 31.676 41.113 32.764 41.113 A 11.64 11.64 0 0 0 33.858 41.059 A 15.029 15.029 0 0 0 34.778 40.942 A 32.332 32.332 0 0 0 36.214 40.684 A 27.552 27.552 0 0 0 36.829 40.552 A 35.089 35.089 0 0 0 37.514 40.389 Q 38.054 40.254 38.489 40.125 Q 39.184 39.917 39.38 39.844 L 40.21 41.919 A 1.695 1.695 0 0 1 40.127 41.974 Q 39.906 42.112 39.331 42.419 A 9.257 9.257 0 0 1 38.754 42.701 Q 38.446 42.839 38.084 42.98 A 20.937 20.937 0 0 1 37.488 43.201 A 16.252 16.252 0 0 1 36.417 43.537 Q 35.864 43.691 35.239 43.83 A 28.39 28.39 0 0 1 34.814 43.921 A 15.197 15.197 0 0 1 32.885 44.186 A 19.174 19.174 0 0 1 31.445 44.238 A 22.537 22.537 0 0 1 28.865 44.096 A 18.39 18.39 0 0 1 27.234 43.835 A 7.692 7.692 0 0 1 24.764 42.877 A 7.154 7.154 0 0 1 23.877 42.236 A 6.691 6.691 0 0 1 22.545 40.683 Q 22.033 39.873 21.655 38.843 Q 20.85 36.646 20.825 33.032 A 32.903 32.903 0 0 1 20.824 32.807 Q 20.824 29.387 21.545 26.929 A 13.809 13.809 0 0 1 22.316 24.882 Q 22.852 23.755 23.562 22.881 A 8.516 8.516 0 0 1 23.657 22.766 A 8.096 8.096 0 0 1 26.99 20.386 A 11.243 11.243 0 0 1 29.703 19.727 A 14.232 14.232 0 0 1 31.396 19.629 Q 34.058 19.629 35.767 20.251 A 6.115 6.115 0 0 1 37.376 21.113 A 5.28 5.28 0 0 1 38.452 22.205 A 6.793 6.793 0 0 1 39.279 23.721 Q 39.618 24.573 39.807 25.61 Q 40.163 27.56 40.163 30.242 A 41.548 41.548 0 0 1 40.161 30.591 Z M 137.549 30.591 L 122.412 30.713 A 86.467 86.467 0 0 0 122.427 32.373 A 65.615 65.615 0 0 0 122.473 33.887 A 17.403 17.403 0 0 0 122.583 35.257 A 13.001 13.001 0 0 0 122.791 36.487 A 8.377 8.377 0 0 0 123.117 37.605 A 6.404 6.404 0 0 0 123.535 38.513 A 4.164 4.164 0 0 0 124.89 39.954 Q 125.757 40.527 127.039 40.82 A 10.507 10.507 0 0 0 128.171 41.01 Q 129.064 41.113 130.151 41.113 A 11.64 11.64 0 0 0 131.245 41.059 A 15.029 15.029 0 0 0 132.166 40.942 A 32.332 32.332 0 0 0 133.602 40.684 A 27.552 27.552 0 0 0 134.216 40.552 A 35.089 35.089 0 0 0 134.902 40.389 Q 135.442 40.254 135.876 40.125 Q 136.572 39.917 136.767 39.844 L 137.598 41.919 A 1.695 1.695 0 0 1 137.515 41.974 Q 137.294 42.112 136.719 42.419 A 9.257 9.257 0 0 1 136.141 42.701 Q 135.833 42.839 135.471 42.98 A 20.937 20.937 0 0 1 134.875 43.201 A 16.252 16.252 0 0 1 133.805 43.537 Q 133.252 43.691 132.627 43.83 A 28.39 28.39 0 0 1 132.202 43.921 A 15.197 15.197 0 0 1 130.272 44.186 A 19.174 19.174 0 0 1 128.833 44.238 A 22.537 22.537 0 0 1 126.253 44.096 A 18.39 18.39 0 0 1 124.622 43.835 A 7.692 7.692 0 0 1 122.152 42.877 A 7.154 7.154 0 0 1 121.265 42.236 A 6.691 6.691 0 0 1 119.932 40.683 Q 119.421 39.873 119.043 38.843 Q 118.237 36.646 118.213 33.032 A 32.903 32.903 0 0 1 118.212 32.807 Q 118.212 29.387 118.933 26.929 A 13.809 13.809 0 0 1 119.704 24.882 Q 120.24 23.755 120.95 22.881 A 8.516 8.516 0 0 1 121.045 22.766 A 8.096 8.096 0 0 1 124.377 20.386 A 11.243 11.243 0 0 1 127.091 19.727 A 14.232 14.232 0 0 1 128.784 19.629 Q 131.445 19.629 133.154 20.251 A 6.115 6.115 0 0 1 134.763 21.113 A 5.28 5.28 0 0 1 135.84 22.205 A 6.793 6.793 0 0 1 136.667 23.721 Q 137.006 24.573 137.195 25.61 Q 137.55 27.56 137.55 30.242 A 41.548 41.548 0 0 1 137.549 30.591 Z M 287.622 30.591 L 272.485 30.713 A 86.467 86.467 0 0 0 272.501 32.373 A 65.615 65.615 0 0 0 272.546 33.887 A 17.403 17.403 0 0 0 272.656 35.257 A 13.001 13.001 0 0 0 272.864 36.487 A 8.377 8.377 0 0 0 273.19 37.605 A 6.404 6.404 0 0 0 273.608 38.513 A 4.164 4.164 0 0 0 274.963 39.954 Q 275.83 40.527 277.112 40.82 A 10.507 10.507 0 0 0 278.244 41.01 Q 279.137 41.113 280.225 41.113 A 11.64 11.64 0 0 0 281.319 41.059 A 15.029 15.029 0 0 0 282.239 40.942 A 32.332 32.332 0 0 0 283.675 40.684 A 27.552 27.552 0 0 0 284.29 40.552 A 35.089 35.089 0 0 0 284.975 40.389 Q 285.515 40.254 285.95 40.125 Q 286.645 39.917 286.84 39.844 L 287.671 41.919 A 1.695 1.695 0 0 1 287.588 41.974 Q 287.367 42.112 286.792 42.419 A 9.257 9.257 0 0 1 286.214 42.701 Q 285.907 42.839 285.545 42.98 A 20.937 20.937 0 0 1 284.949 43.201 A 16.252 16.252 0 0 1 283.878 43.537 Q 283.325 43.691 282.7 43.83 A 28.39 28.39 0 0 1 282.275 43.921 A 15.197 15.197 0 0 1 280.346 44.186 A 19.174 19.174 0 0 1 278.906 44.238 A 22.537 22.537 0 0 1 276.326 44.096 A 18.39 18.39 0 0 1 274.695 43.835 A 7.692 7.692 0 0 1 272.225 42.877 A 7.154 7.154 0 0 1 271.338 42.236 A 6.691 6.691 0 0 1 270.006 40.683 Q 269.494 39.873 269.116 38.843 Q 268.311 36.646 268.286 33.032 A 32.903 32.903 0 0 1 268.285 32.807 Q 268.285 29.387 269.006 26.929 A 13.809 13.809 0 0 1 269.777 24.882 Q 270.313 23.755 271.023 22.881 A 8.516 8.516 0 0 1 271.118 22.766 A 8.096 8.096 0 0 1 274.451 20.386 A 11.243 11.243 0 0 1 277.164 19.727 A 14.232 14.232 0 0 1 278.857 19.629 Q 281.519 19.629 283.228 20.251 A 6.115 6.115 0 0 1 284.837 21.113 A 5.28 5.28 0 0 1 285.913 22.205 A 6.793 6.793 0 0 1 286.74 23.721 Q 287.079 24.573 287.268 25.61 Q 287.624 27.56 287.624 30.242 A 41.548 41.548 0 0 1 287.622 30.591 Z M 159.229 38.403 L 159.229 23.096 A 15.377 15.377 0 0 0 158.717 22.987 Q 158.183 22.881 157.457 22.767 A 53.935 53.935 0 0 0 157.214 22.729 A 17.043 17.043 0 0 0 155.531 22.562 A 20.997 20.997 0 0 0 154.443 22.534 A 14.683 14.683 0 0 0 152.82 22.618 Q 152.029 22.706 151.365 22.887 A 6.402 6.402 0 0 0 150.293 23.279 A 5.923 5.923 0 0 0 148.709 24.361 A 5.302 5.302 0 0 0 147.888 25.378 A 7.565 7.565 0 0 0 147.086 27.173 A 9.977 9.977 0 0 0 146.765 28.613 A 25.11 25.11 0 0 0 146.538 30.844 A 32.263 32.263 0 0 0 146.484 32.739 A 31.968 31.968 0 0 0 146.532 34.522 Q 146.58 35.388 146.678 36.157 A 21.078 21.078 0 0 0 146.68 36.169 Q 146.86 37.575 147.34 38.597 A 5.726 5.726 0 0 0 147.424 38.77 A 4.018 4.018 0 0 0 148.414 40.033 A 3.852 3.852 0 0 0 148.962 40.417 A 3.924 3.924 0 0 0 150.006 40.827 Q 150.468 40.94 151.007 40.975 A 7.762 7.762 0 0 0 151.514 40.991 A 8.81 8.81 0 0 0 152.716 40.905 A 10.802 10.802 0 0 0 153.479 40.771 A 15.96 15.96 0 0 0 155.542 40.186 A 19.439 19.439 0 0 0 157.52 39.355 A 18.268 18.268 0 0 0 158.529 38.826 A 14.316 14.316 0 0 0 159.229 38.403 Z M 188.354 38.403 L 188.354 23.096 A 15.377 15.377 0 0 0 187.843 22.987 Q 187.309 22.881 186.583 22.767 A 53.935 53.935 0 0 0 186.34 22.729 A 17.043 17.043 0 0 0 184.657 22.562 A 20.997 20.997 0 0 0 183.569 22.534 A 14.683 14.683 0 0 0 181.946 22.618 Q 181.155 22.706 180.491 22.887 A 6.402 6.402 0 0 0 179.419 23.279 A 5.923 5.923 0 0 0 177.835 24.361 A 5.302 5.302 0 0 0 177.014 25.378 A 7.565 7.565 0 0 0 176.212 27.173 A 9.977 9.977 0 0 0 175.891 28.613 A 25.11 25.11 0 0 0 175.664 30.844 A 32.263 32.263 0 0 0 175.61 32.739 A 31.968 31.968 0 0 0 175.658 34.522 Q 175.706 35.388 175.804 36.157 A 21.078 21.078 0 0 0 175.806 36.169 Q 175.986 37.575 176.466 38.597 A 5.726 5.726 0 0 0 176.55 38.77 A 4.018 4.018 0 0 0 177.54 40.033 A 3.852 3.852 0 0 0 178.088 40.417 A 3.924 3.924 0 0 0 179.132 40.827 Q 179.594 40.94 180.133 40.975 A 7.762 7.762 0 0 0 180.64 40.991 A 8.81 8.81 0 0 0 181.842 40.905 A 10.802 10.802 0 0 0 182.605 40.771 A 15.96 15.96 0 0 0 184.668 40.186 A 19.439 19.439 0 0 0 186.646 39.355 A 18.268 18.268 0 0 0 187.655 38.826 A 14.316 14.316 0 0 0 188.354 38.403 Z M 96.387 24.976 L 96.387 35.059 Q 96.387 35.474 96.338 36.279 A 131.206 131.206 0 0 0 96.289 37.127 Q 96.265 37.574 96.241 38.07 A 212.52 212.52 0 0 0 96.24 38.086 A 11.325 11.325 0 0 0 96.815 38.552 Q 97.168 38.82 97.583 39.099 Q 98.364 39.624 99.255 40.051 Q 100.146 40.479 101.123 40.759 Q 102.1 41.04 103.027 41.04 Q 104.466 41.04 105.529 40.557 A 4.555 4.555 0 0 0 105.566 40.54 A 4.273 4.273 0 0 0 107.151 39.256 A 5.218 5.218 0 0 0 107.361 38.965 A 6.268 6.268 0 0 0 107.926 37.901 Q 108.146 37.376 108.316 36.755 A 12.081 12.081 0 0 0 108.459 36.169 A 16.675 16.675 0 0 0 108.7 34.774 Q 108.803 33.992 108.86 33.097 A 33.445 33.445 0 0 0 108.911 31.982 Q 108.936 30.078 108.801 28.394 A 11.885 11.885 0 0 0 108.592 26.905 Q 108.428 26.12 108.159 25.45 A 7.491 7.491 0 0 0 108.154 25.439 A 4.879 4.879 0 0 0 107.448 24.212 A 4.214 4.214 0 0 0 106.641 23.438 Q 105.783 22.81 104.422 22.72 A 7.106 7.106 0 0 0 103.955 22.705 A 12.462 12.462 0 0 0 101.746 22.9 A 16.98 16.98 0 0 0 100.185 23.255 A 14.911 14.911 0 0 0 99.695 23.401 A 13.129 13.129 0 0 0 98.208 23.969 A 11.78 11.78 0 0 0 97.888 24.121 A 15.146 15.146 0 0 0 97.092 24.542 A 11.735 11.735 0 0 0 96.387 24.976 Z M 231.152 24.976 L 231.152 35.059 Q 231.152 35.474 231.104 36.279 A 131.206 131.206 0 0 0 231.055 37.127 Q 231.031 37.574 231.007 38.07 A 212.52 212.52 0 0 0 231.006 38.086 A 11.325 11.325 0 0 0 231.581 38.552 Q 231.934 38.82 232.349 39.099 Q 233.13 39.624 234.021 40.051 Q 234.912 40.479 235.889 40.759 Q 236.865 41.04 237.793 41.04 Q 239.232 41.04 240.294 40.557 A 4.555 4.555 0 0 0 240.332 40.54 A 4.273 4.273 0 0 0 241.917 39.256 A 5.218 5.218 0 0 0 242.126 38.965 A 6.268 6.268 0 0 0 242.691 37.901 Q 242.912 37.376 243.081 36.755 A 12.081 12.081 0 0 0 243.225 36.169 A 16.675 16.675 0 0 0 243.466 34.774 Q 243.569 33.992 243.626 33.097 A 33.445 33.445 0 0 0 243.677 31.982 Q 243.701 30.078 243.567 28.394 A 11.885 11.885 0 0 0 243.358 26.905 Q 243.194 26.12 242.924 25.45 A 7.491 7.491 0 0 0 242.92 25.439 A 4.879 4.879 0 0 0 242.213 24.212 A 4.214 4.214 0 0 0 241.406 23.438 Q 240.548 22.81 239.188 22.72 A 7.106 7.106 0 0 0 238.721 22.705 A 12.462 12.462 0 0 0 236.511 22.9 A 16.98 16.98 0 0 0 234.95 23.255 A 14.911 14.911 0 0 0 234.46 23.401 A 13.129 13.129 0 0 0 232.974 23.969 A 11.78 11.78 0 0 0 232.654 24.121 A 15.146 15.146 0 0 0 231.857 24.542 A 11.735 11.735 0 0 0 231.152 24.976 Z M 213.721 38.452 L 213.721 32.69 L 211.816 32.861 Q 207.91 33.203 206.055 34.436 A 3.943 3.943 0 0 0 204.249 37.291 A 5.4 5.4 0 0 0 204.199 38.037 Q 204.199 38.916 204.456 39.478 A 2.542 2.542 0 0 0 204.813 40.053 A 2.189 2.189 0 0 0 205.151 40.381 Q 205.591 40.723 206.14 40.857 A 4.764 4.764 0 0 0 207.275 40.991 A 6.45 6.45 0 0 0 207.916 40.958 A 8.699 8.699 0 0 0 208.618 40.857 A 9.228 9.228 0 0 0 209.473 40.656 A 11.866 11.866 0 0 0 210.181 40.43 Q 211.011 40.137 211.902 39.648 A 13.412 13.412 0 0 0 213.03 38.952 A 16.52 16.52 0 0 0 213.721 38.452 Z M 25.171 28.345 L 35.962 27.954 Q 35.913 25.879 35.437 24.707 A 6.156 6.156 0 0 0 35.084 23.972 Q 34.869 23.596 34.621 23.31 A 3.004 3.004 0 0 0 34.265 22.961 A 3.403 3.403 0 0 0 33.448 22.455 A 2.945 2.945 0 0 0 32.764 22.253 A 9.864 9.864 0 0 0 31.696 22.133 A 8.387 8.387 0 0 0 31.226 22.119 Q 30.011 22.119 29.089 22.327 A 5.955 5.955 0 0 0 28.552 22.473 A 4.474 4.474 0 0 0 27.409 23.026 A 3.895 3.895 0 0 0 26.758 23.584 A 4.409 4.409 0 0 0 26.038 24.633 A 5.871 5.871 0 0 0 25.684 25.525 A 10.848 10.848 0 0 0 25.405 26.647 Q 25.291 27.23 25.216 27.894 A 19.689 19.689 0 0 0 25.171 28.345 Z M 122.559 28.345 L 133.35 27.954 Q 133.301 25.879 132.825 24.707 A 6.156 6.156 0 0 0 132.471 23.972 Q 132.257 23.596 132.008 23.31 A 3.004 3.004 0 0 0 131.653 22.961 A 3.403 3.403 0 0 0 130.835 22.455 A 2.945 2.945 0 0 0 130.151 22.253 A 9.864 9.864 0 0 0 129.084 22.133 A 8.387 8.387 0 0 0 128.613 22.119 Q 127.398 22.119 126.477 22.327 A 5.955 5.955 0 0 0 125.94 22.473 A 4.474 4.474 0 0 0 124.797 23.026 A 3.895 3.895 0 0 0 124.146 23.584 A 4.409 4.409 0 0 0 123.425 24.633 A 5.871 5.871 0 0 0 123.071 25.525 A 10.848 10.848 0 0 0 122.793 26.647 Q 122.679 27.23 122.604 27.894 A 19.689 19.689 0 0 0 122.559 28.345 Z M 272.632 28.345 L 283.423 27.954 Q 283.374 25.879 282.898 24.707 A 6.156 6.156 0 0 0 282.545 23.972 Q 282.33 23.596 282.081 23.31 A 3.004 3.004 0 0 0 281.726 22.961 A 3.403 3.403 0 0 0 280.909 22.455 A 2.945 2.945 0 0 0 280.225 22.253 A 9.864 9.864 0 0 0 279.157 22.133 A 8.387 8.387 0 0 0 278.687 22.119 Q 277.472 22.119 276.55 22.327 A 5.955 5.955 0 0 0 276.013 22.473 A 4.474 4.474 0 0 0 274.87 23.026 A 3.895 3.895 0 0 0 274.219 23.584 A 4.409 4.409 0 0 0 273.498 24.633 A 5.871 5.871 0 0 0 273.145 25.525 A 10.848 10.848 0 0 0 272.866 26.647 Q 272.752 27.23 272.677 27.894 A 19.689 19.689 0 0 0 272.632 28.345 Z" vector-effect="non-scaling-stroke"/></g></svg>