<svg width="288.623" height="58.667" viewBox="0 0 288.623 58.667" xmlns="http://www.w3.org/2000/svg"><g id="svgGroup" stroke-linecap="round" fill-rule="evenodd" font-size="9pt" stroke="#000" stroke-width="0.25mm" fill="black" style="stroke:#000;stroke-width:0.25mm;fill:black"><path d="M 84.277 43.53 L 84.058 41.626 Q 84.961 41.309 85.95 41.15 A 84.966 84.966 0 0 0 87.75 40.842 A 77.692 77.692 0 0 0 87.866 40.82 L 87.866 22.998 L 83.667 22.998 L 83.374 20.898 A 5.544 5.544 0 0 1 83.544 20.831 Q 83.82 20.727 84.289 20.573 A 38.601 38.601 0 0 1 84.338 20.557 A 18.158 18.158 0 0 1 85.052 20.34 A 24.699 24.699 0 0 1 85.852 20.129 A 23.54 23.54 0 0 1 87.561 19.775 A 11.25 11.25 0 0 1 88.363 19.668 Q 88.758 19.63 89.113 19.629 A 6.887 6.887 0 0 1 89.136 19.629 Q 90.098 19.629 90.641 19.865 A 1.741 1.741 0 0 1 90.71 19.897 Q 91.169 20.121 91.423 20.43 A 1.452 1.452 0 0 1 91.516 20.557 Q 91.772 20.947 91.809 21.411 Q 91.843 21.844 91.846 22.192 A 7.515 7.515 0 0 1 91.846 22.241 L 91.846 22.656 A 30.043 30.043 0 0 1 93.062 21.822 A 24.236 24.236 0 0 1 93.86 21.326 A 13.55 13.55 0 0 1 95.397 20.535 A 12.061 12.061 0 0 1 95.789 20.374 Q 96.753 19.995 97.754 19.812 A 11.443 11.443 0 0 1 99.513 19.633 A 12.914 12.914 0 0 1 99.854 19.629 A 18.803 18.803 0 0 1 101.028 19.664 Q 101.658 19.703 102.209 19.788 A 7.329 7.329 0 0 1 103.123 19.985 A 5.382 5.382 0 0 1 104.016 20.325 A 3.881 3.881 0 0 1 105.097 21.101 A 3.662 3.662 0 0 1 105.298 21.326 Q 105.803 21.939 106.119 22.872 A 6.91 6.91 0 0 1 106.128 22.9 L 106.665 22.534 A 25.978 25.978 0 0 1 108.211 21.566 A 22.558 22.558 0 0 1 108.728 21.277 A 15.492 15.492 0 0 1 110.366 20.505 A 13.816 13.816 0 0 1 110.742 20.361 Q 111.743 19.995 112.781 19.812 A 12.302 12.302 0 0 1 114.732 19.631 A 13.632 13.632 0 0 1 114.941 19.629 A 18.071 18.071 0 0 1 116.3 19.677 Q 116.958 19.727 117.523 19.828 A 8.547 8.547 0 0 1 118.176 19.971 A 4.719 4.719 0 0 1 119.321 20.428 A 3.823 3.823 0 0 1 120.276 21.191 A 4.231 4.231 0 0 1 120.948 22.213 Q 121.238 22.821 121.411 23.596 Q 121.643 24.633 121.718 26.06 A 27.526 27.526 0 0 1 121.753 27.49 L 121.753 40.894 L 125.562 41.553 A 0.907 0.907 0 0 1 125.598 41.711 Q 125.609 41.786 125.61 41.87 A 1.526 1.526 0 0 1 125.61 41.895 L 125.61 42.261 Q 125.61 42.603 125.513 42.981 A 4.824 4.824 0 0 1 125.464 43.157 Q 125.409 43.34 125.355 43.458 A 0.969 0.969 0 0 1 125.317 43.53 L 114.526 43.53 L 114.331 41.626 A 10.097 10.097 0 0 1 115.263 41.337 A 7.853 7.853 0 0 1 115.991 41.187 A 37.772 37.772 0 0 0 117.178 40.981 A 43.648 43.648 0 0 0 117.627 40.894 L 117.627 27.734 A 15.45 15.45 0 0 0 117.601 26.817 Q 117.558 26.097 117.444 25.525 Q 117.283 24.72 116.924 24.179 A 2.619 2.619 0 0 0 116.821 24.036 Q 116.382 23.462 115.674 23.193 A 3.797 3.797 0 0 0 114.994 23.01 Q 114.651 22.949 114.257 22.932 A 7.274 7.274 0 0 0 113.94 22.925 A 21.767 21.767 0 0 0 112.888 22.949 A 16.699 16.699 0 0 0 111.926 23.022 A 14.5 14.5 0 0 0 110.495 23.246 A 12.947 12.947 0 0 0 110.181 23.315 A 12.48 12.48 0 0 0 108.557 23.816 A 20.133 20.133 0 0 0 107.437 24.287 A 23.768 23.768 0 0 0 106.909 24.536 L 106.519 24.731 A 19.649 19.649 0 0 1 106.627 26.01 Q 106.663 26.665 106.665 27.393 A 31.974 31.974 0 0 1 106.665 27.49 L 106.665 40.894 L 110.474 41.553 A 1.124 1.124 0 0 1 110.512 41.706 Q 110.526 41.783 110.533 41.87 A 1.892 1.892 0 0 1 110.535 41.895 A 6.355 6.355 0 0 1 110.545 42.129 A 5.181 5.181 0 0 1 110.547 42.261 Q 110.547 42.603 110.449 42.981 A 4.824 4.824 0 0 1 110.4 43.157 Q 110.346 43.34 110.291 43.458 A 0.969 0.969 0 0 1 110.254 43.53 L 99.463 43.53 L 99.292 41.626 A 9.051 9.051 0 0 1 100.336 41.306 A 7.488 7.488 0 0 1 100.94 41.187 A 36.319 36.319 0 0 0 102.164 40.976 A 41.046 41.046 0 0 0 102.588 40.894 L 102.588 27.734 A 14.792 14.792 0 0 0 102.558 26.761 Q 102.514 26.093 102.405 25.549 Q 102.222 24.634 101.782 24.048 A 2.518 2.518 0 0 0 100.635 23.193 A 3.797 3.797 0 0 0 99.955 23.01 Q 99.612 22.949 99.218 22.932 A 7.274 7.274 0 0 0 98.901 22.925 A 21.767 21.767 0 0 0 97.849 22.949 A 16.699 16.699 0 0 0 96.887 23.022 A 14.5 14.5 0 0 0 95.456 23.246 A 12.947 12.947 0 0 0 95.142 23.315 A 13.823 13.823 0 0 0 93.518 23.804 A 26.123 26.123 0 0 0 92.493 24.208 A 31.644 31.644 0 0 0 91.846 24.487 L 91.846 40.82 L 95.825 41.553 A 0.907 0.907 0 0 1 95.862 41.711 Q 95.872 41.786 95.874 41.87 A 1.526 1.526 0 0 1 95.874 41.895 L 95.874 42.261 A 3.065 3.065 0 0 1 95.837 42.725 A 3.722 3.722 0 0 1 95.789 42.981 A 4.277 4.277 0 0 1 95.745 43.157 Q 95.679 43.402 95.605 43.53 L 84.277 43.53 Z M 153.906 43.53 L 153.687 41.626 Q 154.59 41.309 155.579 41.15 A 84.966 84.966 0 0 0 157.379 40.842 A 77.692 77.692 0 0 0 157.495 40.82 L 157.495 22.998 L 153.296 22.998 L 153.003 20.898 A 5.544 5.544 0 0 1 153.173 20.831 Q 153.449 20.727 153.918 20.573 A 38.601 38.601 0 0 1 153.967 20.557 A 18.158 18.158 0 0 1 154.681 20.34 A 24.699 24.699 0 0 1 155.481 20.129 A 23.54 23.54 0 0 1 157.19 19.775 A 11.25 11.25 0 0 1 157.992 19.668 Q 158.387 19.63 158.742 19.629 A 6.887 6.887 0 0 1 158.765 19.629 Q 159.727 19.629 160.27 19.865 A 1.741 1.741 0 0 1 160.339 19.897 Q 160.797 20.121 161.052 20.43 A 1.452 1.452 0 0 1 161.145 20.557 Q 161.401 20.947 161.438 21.411 Q 161.472 21.844 161.474 22.192 A 7.515 7.515 0 0 1 161.475 22.241 L 161.475 22.656 A 30.043 30.043 0 0 1 162.691 21.822 A 24.236 24.236 0 0 1 163.489 21.326 A 13.55 13.55 0 0 1 165.026 20.535 A 12.061 12.061 0 0 1 165.417 20.374 Q 166.382 19.995 167.383 19.812 A 11.443 11.443 0 0 1 169.141 19.633 A 12.914 12.914 0 0 1 169.482 19.629 A 18.803 18.803 0 0 1 170.657 19.664 Q 171.287 19.703 171.838 19.788 A 7.329 7.329 0 0 1 172.752 19.985 A 5.382 5.382 0 0 1 173.645 20.325 A 3.881 3.881 0 0 1 174.725 21.101 A 3.662 3.662 0 0 1 174.927 21.326 Q 175.432 21.939 175.747 22.872 A 6.91 6.91 0 0 1 175.757 22.9 L 176.294 22.534 A 25.978 25.978 0 0 1 177.84 21.566 A 22.558 22.558 0 0 1 178.357 21.277 A 15.492 15.492 0 0 1 179.995 20.505 A 13.816 13.816 0 0 1 180.371 20.361 Q 181.372 19.995 182.41 19.812 A 12.302 12.302 0 0 1 184.36 19.631 A 13.632 13.632 0 0 1 184.57 19.629 A 18.071 18.071 0 0 1 185.929 19.677 Q 186.587 19.727 187.152 19.828 A 8.547 8.547 0 0 1 187.805 19.971 A 4.719 4.719 0 0 1 188.95 20.428 A 3.823 3.823 0 0 1 189.905 21.191 A 4.231 4.231 0 0 1 190.576 22.213 Q 190.866 22.821 191.04 23.596 Q 191.272 24.633 191.347 26.06 A 27.526 27.526 0 0 1 191.382 27.49 L 191.382 40.894 L 195.19 41.553 A 0.907 0.907 0 0 1 195.227 41.711 Q 195.238 41.786 195.239 41.87 A 1.526 1.526 0 0 1 195.239 41.895 L 195.239 42.261 Q 195.239 42.603 195.142 42.981 A 4.824 4.824 0 0 1 195.093 43.157 Q 195.038 43.34 194.983 43.458 A 0.969 0.969 0 0 1 194.946 43.53 L 184.155 43.53 L 183.96 41.626 A 10.097 10.097 0 0 1 184.892 41.337 A 7.853 7.853 0 0 1 185.62 41.187 A 37.772 37.772 0 0 0 186.807 40.981 A 43.648 43.648 0 0 0 187.256 40.894 L 187.256 27.734 A 15.45 15.45 0 0 0 187.23 26.817 Q 187.187 26.097 187.073 25.525 Q 186.912 24.72 186.552 24.179 A 2.619 2.619 0 0 0 186.45 24.036 Q 186.011 23.462 185.303 23.193 A 3.797 3.797 0 0 0 184.622 23.01 Q 184.28 22.949 183.886 22.932 A 7.274 7.274 0 0 0 183.569 22.925 A 21.767 21.767 0 0 0 182.516 22.949 A 16.699 16.699 0 0 0 181.555 23.022 A 14.5 14.5 0 0 0 180.124 23.246 A 12.947 12.947 0 0 0 179.81 23.315 A 12.48 12.48 0 0 0 178.186 23.816 A 20.133 20.133 0 0 0 177.066 24.287 A 23.768 23.768 0 0 0 176.538 24.536 L 176.147 24.731 A 19.649 19.649 0 0 1 176.256 26.01 Q 176.292 26.665 176.294 27.393 A 31.974 31.974 0 0 1 176.294 27.49 L 176.294 40.894 L 180.103 41.553 A 1.124 1.124 0 0 1 180.141 41.706 Q 180.155 41.783 180.162 41.87 A 1.892 1.892 0 0 1 180.164 41.895 A 6.355 6.355 0 0 1 180.174 42.129 A 5.181 5.181 0 0 1 180.176 42.261 Q 180.176 42.603 180.078 42.981 A 4.824 4.824 0 0 1 180.029 43.157 Q 179.975 43.34 179.92 43.458 A 0.969 0.969 0 0 1 179.883 43.53 L 169.092 43.53 L 168.921 41.626 A 9.051 9.051 0 0 1 169.965 41.306 A 7.488 7.488 0 0 1 170.569 41.187 A 36.319 36.319 0 0 0 171.793 40.976 A 41.046 41.046 0 0 0 172.217 40.894 L 172.217 27.734 A 14.792 14.792 0 0 0 172.187 26.761 Q 172.142 26.093 172.034 25.549 Q 171.851 24.634 171.411 24.048 A 2.518 2.518 0 0 0 170.264 23.193 A 3.797 3.797 0 0 0 169.583 23.01 Q 169.241 22.949 168.847 22.932 A 7.274 7.274 0 0 0 168.53 22.925 A 21.767 21.767 0 0 0 167.477 22.949 A 16.699 16.699 0 0 0 166.516 23.022 A 14.5 14.5 0 0 0 165.085 23.246 A 12.947 12.947 0 0 0 164.771 23.315 A 13.823 13.823 0 0 0 163.147 23.804 A 26.123 26.123 0 0 0 162.122 24.208 A 31.644 31.644 0 0 0 161.475 24.487 L 161.475 40.82 L 165.454 41.553 A 0.907 0.907 0 0 1 165.491 41.711 Q 165.501 41.786 165.503 41.87 A 1.526 1.526 0 0 1 165.503 41.895 L 165.503 42.261 A 3.065 3.065 0 0 1 165.466 42.725 A 3.722 3.722 0 0 1 165.417 42.981 A 4.277 4.277 0 0 1 165.374 43.157 Q 165.308 43.402 165.234 43.53 L 153.906 43.53 Z M 254.614 43.53 L 246.265 22.925 L 244.507 22.29 Q 244.458 22.168 244.446 21.973 A 6.355 6.355 0 0 1 244.435 21.738 A 5.181 5.181 0 0 1 244.434 21.606 A 2.155 2.155 0 0 1 244.481 21.165 A 2.727 2.727 0 0 1 244.556 20.886 Q 244.678 20.508 244.751 20.337 L 254.443 20.337 L 254.614 22.241 A 11.291 11.291 0 0 1 253.597 22.526 A 14.246 14.246 0 0 1 252.832 22.681 A 65.803 65.803 0 0 1 251.886 22.839 A 53.468 53.468 0 0 1 251.001 22.974 L 256.812 38.281 L 257.544 41.284 L 263.428 23.022 L 259.18 22.29 A 0.594 0.594 0 0 1 259.15 22.188 Q 259.139 22.136 259.135 22.074 A 1.336 1.336 0 0 1 259.131 21.973 L 259.131 21.606 Q 259.131 21.265 259.229 20.886 Q 259.306 20.587 259.368 20.418 A 1.607 1.607 0 0 1 259.399 20.337 L 269.165 20.337 L 269.385 22.412 A 3.043 3.043 0 0 1 269.026 22.563 A 3.608 3.608 0 0 1 268.848 22.62 A 29.668 29.668 0 0 1 268.394 22.748 A 33.132 33.132 0 0 1 268.237 22.791 Q 267.92 22.876 267.639 22.937 A 137.464 137.464 0 0 0 267.405 22.988 Q 267.298 23.012 267.202 23.033 A 81.825 81.825 0 0 0 267.139 23.047 L 260.083 43.481 L 259.79 44.238 Q 258.873 46.859 258.219 48.591 A 93.402 93.402 0 0 1 258.069 48.987 Q 257.536 50.379 257.147 51.328 A 46.906 46.906 0 0 1 256.921 51.868 A 90.988 90.988 0 0 1 256.709 52.364 Q 256.41 53.054 256.228 53.438 A 19.013 19.013 0 0 1 256.226 53.442 Q 256.007 53.901 255.867 54.203 A 39.38 39.38 0 0 0 255.835 54.272 A 18.314 18.314 0 0 1 255.32 55.251 Q 254.967 55.873 254.614 56.36 A 6.418 6.418 0 0 1 253.931 57.162 A 5.104 5.104 0 0 1 253.271 57.715 A 4.751 4.751 0 0 1 251.741 58.415 A 5.434 5.434 0 0 1 251.611 58.447 A 7.573 7.573 0 0 1 250.739 58.597 Q 250.289 58.65 249.782 58.663 A 13.369 13.369 0 0 1 249.438 58.667 A 11.991 11.991 0 0 1 247.865 58.561 A 12.876 12.876 0 0 1 247.839 58.557 A 15.044 15.044 0 0 1 246.511 58.32 A 13.493 13.493 0 0 1 246.277 58.264 A 11.742 11.742 0 0 1 245.415 58.018 A 9.558 9.558 0 0 1 244.91 57.837 Q 244.377 57.628 243.996 57.383 A 3.436 3.436 0 0 1 243.872 57.3 L 244.434 55.298 Q 245.532 55.42 246.411 55.493 A 9.286 9.286 0 0 0 247.182 55.525 Q 247.643 55.525 248.128 55.482 A 11.866 11.866 0 0 0 248.267 55.469 A 5.947 5.947 0 0 0 249.183 55.351 A 6.652 6.652 0 0 0 249.316 55.322 Q 249.854 55.2 250.403 54.932 A 4.685 4.685 0 0 0 251.08 54.523 A 5.889 5.889 0 0 0 251.489 54.199 A 5.439 5.439 0 0 0 252.016 53.673 Q 252.248 53.41 252.474 53.094 A 8.989 8.989 0 0 0 252.539 53.003 Q 252.979 52.344 253.516 51.331 A 34.69 34.69 0 0 0 254.059 50.259 A 45.083 45.083 0 0 0 254.614 49.072 A 59.611 59.611 0 0 0 255.386 47.279 A 70.125 70.125 0 0 0 255.737 46.411 Q 256.299 44.995 256.812 43.53 L 254.614 43.53 Z M 37.427 43.53 L 37.207 41.626 A 17.307 17.307 0 0 1 38.624 41.271 A 19.781 19.781 0 0 1 39.124 41.174 A 161.683 161.683 0 0 0 40.103 40.994 A 131.144 131.144 0 0 0 41.016 40.82 L 41.016 22.998 L 36.816 22.998 L 36.523 20.898 A 5.544 5.544 0 0 1 36.694 20.831 Q 36.97 20.727 37.438 20.573 A 38.601 38.601 0 0 1 37.488 20.557 A 18.158 18.158 0 0 1 38.202 20.34 A 24.699 24.699 0 0 1 39.001 20.129 A 23.54 23.54 0 0 1 40.71 19.775 A 11.25 11.25 0 0 1 41.513 19.668 Q 41.907 19.63 42.262 19.629 A 6.887 6.887 0 0 1 42.285 19.629 A 6.315 6.315 0 0 1 42.874 19.654 Q 43.463 19.71 43.846 19.885 A 1.782 1.782 0 0 1 43.872 19.897 A 2.714 2.714 0 0 1 44.252 20.116 Q 44.534 20.313 44.702 20.557 Q 44.971 20.947 45.032 21.411 A 16.046 16.046 0 0 1 45.078 21.798 Q 45.097 21.976 45.11 22.136 A 9.488 9.488 0 0 1 45.117 22.241 L 45.117 22.656 A 19.293 19.293 0 0 1 47.174 21.317 A 14.464 14.464 0 0 1 49.194 20.374 A 12.016 12.016 0 0 1 53.418 19.629 A 18.071 18.071 0 0 1 54.777 19.677 Q 55.435 19.727 55.999 19.828 A 8.547 8.547 0 0 1 56.653 19.971 A 4.719 4.719 0 0 1 57.798 20.428 A 3.823 3.823 0 0 1 58.752 21.191 A 4.231 4.231 0 0 1 59.424 22.213 Q 59.714 22.821 59.888 23.596 Q 60.12 24.633 60.194 26.06 A 27.526 27.526 0 0 1 60.229 27.49 L 60.229 40.894 L 64.063 41.553 A 0.907 0.907 0 0 1 64.099 41.711 Q 64.11 41.786 64.111 41.87 A 1.526 1.526 0 0 1 64.111 41.895 L 64.111 42.261 A 2.385 2.385 0 0 1 64.068 42.702 A 2.973 2.973 0 0 1 64.001 42.981 A 5.51 5.51 0 0 1 63.947 43.157 Q 63.867 43.402 63.794 43.53 L 53.003 43.53 L 52.832 41.626 A 16.873 16.873 0 0 1 53.841 41.35 A 13.562 13.562 0 0 1 54.492 41.211 A 133.839 133.839 0 0 0 55.705 40.977 A 153.39 153.39 0 0 0 56.128 40.894 L 56.128 27.734 A 17.504 17.504 0 0 0 56.103 26.775 Q 56.061 26.002 55.945 25.415 Q 55.797 24.669 55.484 24.167 A 2.412 2.412 0 0 0 55.322 23.938 Q 54.883 23.389 54.175 23.157 Q 53.595 22.967 52.802 22.932 A 8.332 8.332 0 0 0 52.441 22.925 A 22.018 22.018 0 0 0 51.121 22.963 A 18.236 18.236 0 0 0 50.378 23.022 Q 49.414 23.12 48.535 23.315 A 14.732 14.732 0 0 0 46.826 23.804 A 22.587 22.587 0 0 0 45.554 24.298 A 25.791 25.791 0 0 0 45.117 24.487 L 45.117 40.82 L 48.975 41.553 A 0.907 0.907 0 0 1 49.011 41.711 Q 49.022 41.786 49.023 41.87 A 1.526 1.526 0 0 1 49.023 41.895 L 49.023 42.261 A 3.065 3.065 0 0 1 48.987 42.725 A 3.722 3.722 0 0 1 48.938 42.981 A 4.277 4.277 0 0 1 48.895 43.157 Q 48.828 43.402 48.755 43.53 L 37.427 43.53 Z M 6.641 48.12 L 6.641 34.131 Q 6.641 33.804 6.6 33.559 A 2.003 2.003 0 0 0 6.567 33.398 A 1.511 1.511 0 0 0 6.465 33.111 A 1.212 1.212 0 0 0 6.335 32.898 A 1.688 1.688 0 0 0 6.084 32.636 A 2.078 2.078 0 0 0 5.933 32.52 A 9.616 9.616 0 0 0 5.679 32.348 Q 5.535 32.254 5.371 32.153 L 0 29.102 L 0 26.685 L 5.835 23.267 A 1.666 1.666 0 0 0 6.202 22.964 A 1.327 1.327 0 0 0 6.494 22.437 A 3.802 3.802 0 0 0 6.623 21.722 A 4.692 4.692 0 0 0 6.641 21.313 L 6.641 8.154 Q 6.641 7.056 6.885 5.847 A 4.964 4.964 0 0 1 7.51 4.267 A 6.401 6.401 0 0 1 8.032 3.528 A 6.312 6.312 0 0 1 8.949 2.623 Q 9.43 2.231 10.036 1.865 A 12.772 12.772 0 0 1 10.706 1.489 Q 11.944 0.84 13.81 0.37 A 27.224 27.224 0 0 1 15.527 0 L 16.333 2.026 L 12.598 4.053 Q 12.074 4.402 11.686 4.732 A 6.736 6.736 0 0 0 11.597 4.81 A 3.602 3.602 0 0 0 11.024 5.446 A 3.282 3.282 0 0 0 10.913 5.615 A 2.887 2.887 0 0 0 10.646 6.193 A 3.762 3.762 0 0 0 10.522 6.653 A 5.523 5.523 0 0 0 10.441 7.199 Q 10.413 7.475 10.404 7.789 A 10.457 10.457 0 0 0 10.4 8.081 L 10.4 20.679 Q 10.4 21.777 10.278 22.607 A 6.053 6.053 0 0 1 10.12 23.363 A 4.478 4.478 0 0 1 9.863 24.06 A 3.824 3.824 0 0 1 9.106 25.146 A 4.37 4.37 0 0 1 8.479 25.662 A 5.652 5.652 0 0 1 7.959 25.977 L 4.175 28.003 L 7.861 29.834 A 4.737 4.737 0 0 1 9.717 31.628 Q 10.256 32.543 10.37 33.922 A 9.372 9.372 0 0 1 10.4 34.692 L 10.4 48.071 Q 10.4 48.726 10.472 49.229 A 4.963 4.963 0 0 0 10.522 49.524 A 4.097 4.097 0 0 0 10.702 50.154 A 3.314 3.314 0 0 0 10.901 50.586 A 3.107 3.107 0 0 0 11.572 51.416 A 4.932 4.932 0 0 0 12.02 51.765 Q 12.283 51.948 12.598 52.124 L 16.455 54.37 L 15.527 56.274 A 26.285 26.285 0 0 1 13.745 55.901 Q 12.834 55.674 12.074 55.401 A 10.839 10.839 0 0 1 10.706 54.81 A 11.678 11.678 0 0 1 9.511 54.096 Q 8.942 53.704 8.507 53.285 A 5.779 5.779 0 0 1 8.032 52.771 Q 7.129 51.66 6.885 50.439 A 12.711 12.711 0 0 1 6.675 48.961 A 10.548 10.548 0 0 1 6.641 48.12 Z M 278.223 48.218 L 278.223 35.62 Q 278.223 34.521 278.345 33.691 A 6.053 6.053 0 0 1 278.503 32.936 A 4.478 4.478 0 0 1 278.76 32.239 A 3.824 3.824 0 0 1 279.517 31.152 A 4.37 4.37 0 0 1 280.144 30.637 A 5.652 5.652 0 0 1 280.664 30.322 L 284.448 28.296 L 280.762 26.465 A 4.737 4.737 0 0 1 278.906 24.67 Q 278.367 23.755 278.253 22.377 A 9.372 9.372 0 0 1 278.223 21.606 L 278.223 8.228 Q 278.223 7.397 278.101 6.787 A 4.177 4.177 0 0 0 277.933 6.18 A 3.276 3.276 0 0 0 277.722 5.713 A 3.107 3.107 0 0 0 277.051 4.883 A 4.932 4.932 0 0 0 276.603 4.534 Q 276.34 4.351 276.025 4.175 L 272.168 1.929 L 273.096 0.024 A 26.285 26.285 0 0 1 274.878 0.398 Q 275.789 0.625 276.549 0.898 A 10.839 10.839 0 0 1 277.917 1.489 Q 279.299 2.213 280.152 3.056 A 5.72 5.72 0 0 1 280.591 3.54 A 6.211 6.211 0 0 1 281.32 4.666 A 4.869 4.869 0 0 1 281.738 5.872 Q 281.982 7.08 281.982 8.179 L 281.982 22.168 Q 281.982 22.494 282.023 22.74 A 2.003 2.003 0 0 0 282.056 22.9 A 1.511 1.511 0 0 0 282.158 23.188 A 1.212 1.212 0 0 0 282.288 23.401 A 1.852 1.852 0 0 0 282.567 23.692 A 2.171 2.171 0 0 0 282.678 23.779 Q 282.856 23.91 283.098 24.055 A 8.437 8.437 0 0 0 283.252 24.146 L 288.623 27.197 L 288.623 29.614 L 282.788 33.032 A 1.666 1.666 0 0 0 282.421 33.335 A 1.327 1.327 0 0 0 282.129 33.862 A 3.802 3.802 0 0 0 282 34.577 A 4.692 4.692 0 0 0 281.982 34.985 L 281.982 48.145 A 12.019 12.019 0 0 1 281.91 49.439 A 13.428 13.428 0 0 1 281.885 49.658 A 6.57 6.57 0 0 1 281.572 50.985 A 7.46 7.46 0 0 1 281.482 51.233 A 5.681 5.681 0 0 1 280.882 52.372 A 6.774 6.774 0 0 1 280.591 52.771 A 5.831 5.831 0 0 1 279.904 53.497 Q 279.56 53.807 279.138 54.103 A 9.733 9.733 0 0 1 279.016 54.187 A 9.12 9.12 0 0 1 278.062 54.749 Q 277.392 55.093 276.575 55.396 A 16.296 16.296 0 0 1 275.194 55.833 Q 274.475 56.028 273.654 56.192 A 29.701 29.701 0 0 1 273.096 56.299 L 272.29 54.272 L 276.025 52.246 Q 276.55 51.897 276.937 51.567 A 6.736 6.736 0 0 0 277.026 51.489 A 3.602 3.602 0 0 0 277.599 50.852 A 3.282 3.282 0 0 0 277.71 50.684 A 2.943 2.943 0 0 0 277.988 50.077 A 3.729 3.729 0 0 0 278.101 49.658 A 5.117 5.117 0 0 0 278.175 49.181 Q 278.223 48.752 278.223 48.218 Z M 226.489 43.53 L 226.27 41.626 Q 227.197 41.309 228.235 41.15 A 71.121 71.121 0 0 0 229.245 40.988 A 60.602 60.602 0 0 0 230.2 40.82 L 230.2 22.998 L 225.83 22.998 L 225.513 20.898 Q 225.924 20.73 226.478 20.562 A 17.965 17.965 0 0 1 226.831 20.459 Q 227.612 20.239 228.43 20.056 A 26.464 26.464 0 0 1 229.63 19.816 A 23.692 23.692 0 0 1 230.017 19.751 Q 230.534 19.669 230.935 19.642 A 5.46 5.46 0 0 1 231.299 19.629 A 6.336 6.336 0 0 1 231.896 19.655 Q 232.504 19.713 232.898 19.897 A 2.308 2.308 0 0 1 233.344 20.167 A 1.731 1.731 0 0 1 233.752 20.618 Q 234.033 21.069 234.082 21.692 A 16.165 16.165 0 0 1 234.128 22.66 A 18.51 18.51 0 0 1 234.131 22.998 L 234.131 24.878 Q 234.229 24.658 234.473 24.219 A 39.629 39.629 0 0 1 234.859 23.539 A 45.621 45.621 0 0 1 234.998 23.303 A 30.284 30.284 0 0 1 235.524 22.443 A 27.71 27.71 0 0 1 235.559 22.388 A 9.896 9.896 0 0 1 235.694 22.182 Q 235.843 21.961 235.964 21.813 A 2.551 2.551 0 0 1 236.035 21.729 A 5.734 5.734 0 0 1 238 20.129 A 5.246 5.246 0 0 1 239.299 19.685 Q 240.038 19.531 240.918 19.531 A 6.176 6.176 0 0 1 241.011 19.532 Q 241.115 19.534 241.251 19.538 A 20.786 20.786 0 0 1 241.382 19.543 A 16.898 16.898 0 0 1 241.835 19.569 A 19.102 19.102 0 0 1 241.992 19.58 A 16.735 16.735 0 0 1 242.627 19.641 A 3.911 3.911 0 0 1 242.908 19.683 Q 243.059 19.712 243.188 19.751 A 8.072 8.072 0 0 1 243.2 19.908 Q 243.214 20.125 243.222 20.412 A 24.29 24.29 0 0 1 243.225 20.508 A 17.835 17.835 0 0 1 243.231 20.866 Q 243.232 21.112 243.228 21.376 A 24.725 24.725 0 0 1 243.225 21.509 Q 243.213 22.046 243.176 22.595 A 12.615 12.615 0 0 1 243.123 23.186 A 9.932 9.932 0 0 1 243.066 23.608 Q 242.781 23.558 242.403 23.508 A 27.892 27.892 0 0 0 242.041 23.462 A 9.718 9.718 0 0 0 241.431 23.409 Q 241.064 23.389 240.649 23.389 Q 239.722 23.389 238.818 23.547 Q 237.915 23.706 237.183 24.023 A 5.074 5.074 0 0 0 235.988 24.724 A 4.603 4.603 0 0 0 235.596 25.073 Q 234.937 25.732 234.302 26.514 L 234.302 40.82 L 239.941 41.382 Q 239.99 41.504 239.99 41.797 L 239.99 42.261 A 7.125 7.125 0 0 1 239.973 42.748 A 8.357 8.357 0 0 1 239.954 42.981 Q 239.923 43.295 239.851 43.466 A 0.603 0.603 0 0 1 239.819 43.53 L 226.489 43.53 Z M 148.682 30.591 L 133.545 30.713 A 86.467 86.467 0 0 0 133.56 32.373 A 65.615 65.615 0 0 0 133.606 33.887 A 17.403 17.403 0 0 0 133.716 35.257 A 13.001 13.001 0 0 0 133.923 36.487 A 8.377 8.377 0 0 0 134.249 37.605 A 6.404 6.404 0 0 0 134.668 38.513 A 4.164 4.164 0 0 0 136.023 39.954 Q 136.89 40.527 138.171 40.82 A 10.507 10.507 0 0 0 139.303 41.01 Q 140.197 41.113 141.284 41.113 A 11.64 11.64 0 0 0 142.378 41.059 A 15.029 15.029 0 0 0 143.298 40.942 A 32.332 32.332 0 0 0 144.734 40.684 A 27.552 27.552 0 0 0 145.349 40.552 A 35.089 35.089 0 0 0 146.035 40.389 Q 146.574 40.254 147.009 40.125 Q 147.704 39.917 147.9 39.844 L 148.73 41.919 A 1.695 1.695 0 0 1 148.647 41.974 Q 148.427 42.112 147.852 42.419 A 9.257 9.257 0 0 1 147.274 42.701 Q 146.966 42.839 146.604 42.98 A 20.937 20.937 0 0 1 146.008 43.201 A 16.252 16.252 0 0 1 144.938 43.537 Q 144.385 43.691 143.76 43.83 A 28.39 28.39 0 0 1 143.335 43.921 A 15.197 15.197 0 0 1 141.405 44.186 A 19.174 19.174 0 0 1 139.966 44.238 A 22.537 22.537 0 0 1 137.386 44.096 A 18.39 18.39 0 0 1 135.754 43.835 A 7.692 7.692 0 0 1 133.284 42.877 A 7.154 7.154 0 0 1 132.397 42.236 A 6.691 6.691 0 0 1 131.065 40.683 Q 130.553 39.873 130.176 38.843 Q 129.37 36.646 129.346 33.032 A 32.903 32.903 0 0 1 129.345 32.807 Q 129.345 29.387 130.066 26.929 A 13.809 13.809 0 0 1 130.837 24.882 Q 131.373 23.755 132.082 22.881 A 8.516 8.516 0 0 1 132.178 22.766 A 8.096 8.096 0 0 1 135.51 20.386 A 11.243 11.243 0 0 1 138.224 19.727 A 14.232 14.232 0 0 1 139.917 19.629 Q 142.578 19.629 144.287 20.251 A 6.115 6.115 0 0 1 145.896 21.113 A 5.28 5.28 0 0 1 146.973 22.205 A 6.793 6.793 0 0 1 147.8 23.721 Q 148.138 24.573 148.328 25.61 Q 148.683 27.56 148.683 30.242 A 41.548 41.548 0 0 1 148.682 30.591 Z M 21.045 43.53 L 20.825 41.626 A 10.65 10.65 0 0 1 22.176 41.265 A 12.659 12.659 0 0 1 22.839 41.15 Q 23.926 40.991 24.854 40.82 L 24.854 22.998 L 20.703 22.998 L 20.435 20.898 A 15.116 15.116 0 0 1 20.684 20.809 Q 21.085 20.67 21.643 20.496 A 20.35 20.35 0 0 1 23.093 20.104 A 22.201 22.201 0 0 1 23.193 20.081 Q 23.999 19.897 24.78 19.763 A 11.095 11.095 0 0 1 25.335 19.681 Q 25.772 19.629 26.123 19.629 A 6.633 6.633 0 0 1 26.719 19.654 Q 27.305 19.707 27.691 19.873 A 1.869 1.869 0 0 1 27.747 19.897 A 2.684 2.684 0 0 1 28.118 20.106 Q 28.412 20.306 28.577 20.557 Q 28.833 20.947 28.882 21.411 A 26.517 26.517 0 0 1 28.922 21.825 Q 28.942 22.047 28.955 22.241 L 28.955 40.82 L 33.154 41.553 A 5.028 5.028 0 0 1 33.179 42.053 A 5.798 5.798 0 0 1 33.154 42.578 A 3.772 3.772 0 0 1 33.075 43.085 A 2.854 2.854 0 0 1 32.935 43.53 L 21.045 43.53 Z M 199.297 28.423 A 16.146 16.146 0 0 0 198.926 31.934 Q 198.926 34.497 199.365 36.731 A 12.042 12.042 0 0 0 199.649 37.878 A 9.866 9.866 0 0 0 200.952 40.637 A 7.381 7.381 0 0 0 202.026 41.88 A 8.38 8.38 0 0 0 204.102 43.274 A 8.076 8.076 0 0 0 205.175 43.696 Q 206.069 43.978 207.137 44.114 A 16.875 16.875 0 0 0 209.253 44.238 Q 210.742 44.238 212.043 44.019 A 11.846 11.846 0 0 0 214.673 43.274 Q 216.968 42.31 218.469 40.637 Q 219.971 38.965 220.703 36.731 A 14.107 14.107 0 0 0 221.057 35.448 A 15.886 15.886 0 0 0 221.436 31.934 Q 221.436 29.37 220.996 27.136 A 11.918 11.918 0 0 0 220.731 26.054 A 9.794 9.794 0 0 0 219.397 23.23 A 7.49 7.49 0 0 0 218.316 21.988 A 8.459 8.459 0 0 0 216.235 20.593 A 8.076 8.076 0 0 0 215.162 20.171 Q 214.268 19.889 213.199 19.753 A 16.875 16.875 0 0 0 211.084 19.629 Q 207.935 19.629 205.652 20.593 A 12.212 12.212 0 0 0 204.79 20.997 A 10.154 10.154 0 0 0 201.868 23.23 A 10.673 10.673 0 0 0 199.646 27.136 A 14.297 14.297 0 0 0 199.297 28.423 Z M 203.418 31.934 A 31.438 31.438 0 0 0 203.473 33.852 Q 203.528 34.758 203.64 35.531 A 13.132 13.132 0 0 0 203.882 36.792 A 10.591 10.591 0 0 0 204.267 38.039 Q 204.657 39.058 205.212 39.746 Q 206.079 40.82 207.324 41.223 A 8.078 8.078 0 0 0 208.811 41.546 A 10.851 10.851 0 0 0 210.156 41.626 A 8.805 8.805 0 0 0 212.095 41.418 A 7.804 7.804 0 0 0 212.805 41.223 A 4.633 4.633 0 0 0 214.712 40.012 A 5.652 5.652 0 0 0 214.954 39.746 Q 215.708 38.861 216.197 37.428 A 11.733 11.733 0 0 0 216.394 36.792 Q 216.919 34.912 216.919 31.934 A 31.086 31.086 0 0 0 216.864 30.028 Q 216.807 29.099 216.69 28.307 A 13.272 13.272 0 0 0 216.455 27.087 A 10.659 10.659 0 0 0 216.07 25.833 Q 215.832 25.209 215.533 24.71 A 5.149 5.149 0 0 0 215.125 24.121 A 4.419 4.419 0 0 0 213 22.644 A 8.249 8.249 0 0 0 211.482 22.318 A 10.935 10.935 0 0 0 210.156 22.241 A 8.566 8.566 0 0 0 208.01 22.505 A 7.843 7.843 0 0 0 207.532 22.644 A 4.633 4.633 0 0 0 205.625 23.855 A 5.652 5.652 0 0 0 205.383 24.121 A 5.82 5.82 0 0 0 204.66 25.212 Q 204.374 25.761 204.145 26.43 A 11.787 11.787 0 0 0 203.943 27.087 A 12.515 12.515 0 0 0 203.624 28.647 Q 203.508 29.454 203.457 30.393 A 28.586 28.586 0 0 0 203.418 31.934 Z M 133.691 28.345 L 144.482 27.954 Q 144.434 25.879 143.958 24.707 A 6.156 6.156 0 0 0 143.604 23.972 Q 143.389 23.596 143.141 23.31 A 3.004 3.004 0 0 0 142.786 22.961 A 3.403 3.403 0 0 0 141.968 22.455 A 2.945 2.945 0 0 0 141.284 22.253 A 9.864 9.864 0 0 0 140.217 22.133 A 8.387 8.387 0 0 0 139.746 22.119 Q 138.531 22.119 137.61 22.327 A 5.955 5.955 0 0 0 137.073 22.473 A 4.474 4.474 0 0 0 135.93 23.026 A 3.895 3.895 0 0 0 135.278 23.584 A 4.409 4.409 0 0 0 134.558 24.633 A 5.871 5.871 0 0 0 134.204 25.525 A 10.848 10.848 0 0 0 133.926 26.647 Q 133.812 27.23 133.737 27.894 A 19.689 19.689 0 0 0 133.691 28.345 Z M 67.798 31.348 L 67.896 28.296 L 78.906 28.296 A 3.862 3.862 0 0 1 78.938 28.508 Q 78.964 28.714 78.979 28.979 A 14.519 14.519 0 0 1 79.004 29.807 A 15.941 15.941 0 0 1 79.004 29.834 A 14.594 14.594 0 0 1 78.981 30.663 A 13.355 13.355 0 0 1 78.979 30.688 A 8.243 8.243 0 0 1 78.962 30.931 Q 78.941 31.163 78.911 31.325 A 2.258 2.258 0 0 1 78.906 31.348 L 67.798 31.348 Z M 25.562 14.005 A 4.583 4.583 0 0 0 26.44 14.087 A 4.781 4.781 0 0 0 26.8 14.074 A 3.945 3.945 0 0 0 27.527 13.953 A 2.281 2.281 0 0 0 28.418 13.489 A 2.004 2.004 0 0 0 28.747 13.134 A 2.431 2.431 0 0 0 29.028 12.622 A 2.434 2.434 0 0 0 29.114 12.373 Q 29.248 11.908 29.248 11.279 Q 29.248 10.474 29.028 9.937 A 2.605 2.605 0 0 0 28.891 9.651 A 2.078 2.078 0 0 0 28.418 9.07 Q 28.027 8.74 27.527 8.606 A 3.743 3.743 0 0 0 27.138 8.524 A 4.489 4.489 0 0 0 26.44 8.472 A 4.993 4.993 0 0 0 26.259 8.475 A 4.383 4.383 0 0 0 25.33 8.606 Q 24.805 8.74 24.414 9.07 A 2.004 2.004 0 0 0 24.085 9.424 A 2.431 2.431 0 0 0 23.804 9.937 A 2.434 2.434 0 0 0 23.718 10.186 Q 23.584 10.651 23.584 11.279 Q 23.584 12.085 23.804 12.622 A 2.605 2.605 0 0 0 23.941 12.908 A 2.078 2.078 0 0 0 24.414 13.489 A 2.194 2.194 0 0 0 24.565 13.605 A 2.306 2.306 0 0 0 25.33 13.953 A 4.113 4.113 0 0 0 25.562 14.005 Z" vector-effect="non-scaling-stroke"/></g></svg>