<svg width="110.957" height="45.039" viewBox="0 0 110.957 45.039" xmlns="http://www.w3.org/2000/svg"><g id="svgGroup" stroke-linecap="round" fill-rule="evenodd" font-size="9pt" stroke="#000" stroke-width="0.25mm" fill="black" style="stroke:#000;stroke-width:0.25mm;fill:black"><path d="M 5.313 38.496 L 5.313 27.305 Q 5.313 27.044 5.28 26.847 A 1.602 1.602 0 0 0 5.254 26.719 A 1.209 1.209 0 0 0 5.172 26.489 A 0.97 0.97 0 0 0 5.068 26.318 A 1.35 1.35 0 0 0 4.867 26.109 A 1.663 1.663 0 0 0 4.746 26.016 A 7.693 7.693 0 0 0 4.543 25.879 Q 4.435 25.808 4.313 25.733 A 12.436 12.436 0 0 0 4.297 25.723 L 0 23.281 L 0 21.348 L 4.668 18.613 A 1.333 1.333 0 0 0 4.962 18.371 A 1.062 1.062 0 0 0 5.195 17.949 A 3.041 3.041 0 0 0 5.299 17.377 A 3.754 3.754 0 0 0 5.313 17.051 L 5.313 6.523 A 8.834 8.834 0 0 1 5.405 5.273 A 10.543 10.543 0 0 1 5.508 4.678 Q 5.703 3.711 6.426 2.822 Q 7.148 1.934 8.564 1.191 Q 9.98 0.449 12.422 0 L 13.066 1.621 L 10.078 3.242 A 9.184 9.184 0 0 0 9.694 3.512 Q 9.507 3.651 9.349 3.786 A 5.389 5.389 0 0 0 9.277 3.848 A 2.881 2.881 0 0 0 8.819 4.357 A 2.626 2.626 0 0 0 8.73 4.492 A 2.31 2.31 0 0 0 8.517 4.954 A 3.01 3.01 0 0 0 8.418 5.322 Q 8.338 5.714 8.323 6.231 A 8.366 8.366 0 0 0 8.32 6.465 L 8.32 16.543 Q 8.32 17.298 8.248 17.895 A 7.496 7.496 0 0 1 8.223 18.086 A 4.842 4.842 0 0 1 8.096 18.69 A 3.582 3.582 0 0 1 7.891 19.248 A 3.059 3.059 0 0 1 7.285 20.117 Q 6.914 20.488 6.367 20.781 L 3.34 22.402 L 6.289 23.867 A 3.79 3.79 0 0 1 7.773 25.303 Q 8.32 26.23 8.32 27.754 L 8.32 38.457 A 8.049 8.049 0 0 0 8.334 38.941 Q 8.348 39.178 8.378 39.384 A 3.971 3.971 0 0 0 8.418 39.619 A 3.277 3.277 0 0 0 8.562 40.123 A 2.651 2.651 0 0 0 8.721 40.469 A 2.485 2.485 0 0 0 9.258 41.133 A 3.946 3.946 0 0 0 9.616 41.412 Q 9.8 41.54 10.016 41.664 A 6.56 6.56 0 0 0 10.078 41.699 L 13.164 43.496 L 12.422 45.02 A 21.028 21.028 0 0 1 10.996 44.72 Q 9.538 44.358 8.564 43.848 A 9.343 9.343 0 0 1 7.609 43.277 Q 6.88 42.776 6.426 42.217 A 4.82 4.82 0 0 1 5.835 41.306 A 3.878 3.878 0 0 1 5.508 40.352 A 10.169 10.169 0 0 1 5.34 39.169 A 8.438 8.438 0 0 1 5.312 38.496 Z" id="0" vector-effect="non-scaling-stroke"/><path d="M 16.918 22.739 A 12.917 12.917 0 0 0 16.621 25.547 A 22.532 22.532 0 0 0 16.656 26.811 A 18.792 18.792 0 0 0 16.973 29.385 A 9.634 9.634 0 0 0 17.199 30.302 A 7.893 7.893 0 0 0 18.242 32.51 A 5.905 5.905 0 0 0 19.101 33.504 A 6.704 6.704 0 0 0 20.762 34.619 A 6.461 6.461 0 0 0 21.621 34.957 Q 22.336 35.183 23.19 35.291 A 13.5 13.5 0 0 0 24.883 35.391 Q 26.074 35.391 27.115 35.215 A 9.476 9.476 0 0 0 29.219 34.619 A 9.748 9.748 0 0 0 29.992 34.255 A 8.067 8.067 0 0 0 32.256 32.51 A 8.652 8.652 0 0 0 34.043 29.385 A 11.286 11.286 0 0 0 34.326 28.359 A 12.709 12.709 0 0 0 34.629 25.547 A 22.532 22.532 0 0 0 34.594 24.283 A 18.792 18.792 0 0 0 34.277 21.709 A 9.534 9.534 0 0 0 34.066 20.844 A 7.835 7.835 0 0 0 32.998 18.584 A 5.992 5.992 0 0 0 32.133 17.59 A 6.768 6.768 0 0 0 30.469 16.475 A 6.461 6.461 0 0 0 29.61 16.137 Q 28.895 15.911 28.04 15.803 A 13.5 13.5 0 0 0 26.348 15.703 Q 23.828 15.703 22.002 16.475 A 9.769 9.769 0 0 0 21.312 16.798 A 8.123 8.123 0 0 0 18.975 18.584 A 8.538 8.538 0 0 0 17.197 21.709 A 11.438 11.438 0 0 0 16.918 22.739 Z M 20.215 25.547 A 25.15 25.15 0 0 0 20.259 27.081 Q 20.342 28.447 20.586 29.434 A 8.473 8.473 0 0 0 20.894 30.431 Q 21.087 30.934 21.33 31.337 A 4.137 4.137 0 0 0 21.65 31.797 A 3.632 3.632 0 0 0 22.772 32.738 A 3.487 3.487 0 0 0 23.34 32.979 A 6.463 6.463 0 0 0 24.529 33.237 A 8.681 8.681 0 0 0 25.605 33.301 A 7.044 7.044 0 0 0 27.156 33.135 A 6.244 6.244 0 0 0 27.725 32.979 A 3.706 3.706 0 0 0 29.25 32.01 A 4.521 4.521 0 0 0 29.443 31.797 A 4.684 4.684 0 0 0 30.024 30.922 Q 30.255 30.48 30.438 29.942 A 9.387 9.387 0 0 0 30.596 29.434 A 9.764 9.764 0 0 0 30.843 28.239 Q 30.938 27.602 30.98 26.856 A 22.939 22.939 0 0 0 31.016 25.547 A 24.869 24.869 0 0 0 30.972 24.023 Q 30.926 23.279 30.832 22.645 A 10.618 10.618 0 0 0 30.645 21.67 Q 30.366 20.535 29.907 19.768 A 4.119 4.119 0 0 0 29.58 19.297 Q 28.887 18.438 27.881 18.115 A 6.599 6.599 0 0 0 26.666 17.855 A 8.748 8.748 0 0 0 25.605 17.793 Q 24.492 17.793 23.506 18.115 A 3.706 3.706 0 0 0 21.98 19.084 A 4.521 4.521 0 0 0 21.787 19.297 A 4.656 4.656 0 0 0 21.208 20.17 Q 20.98 20.609 20.797 21.144 A 9.429 9.429 0 0 0 20.635 21.67 A 10.012 10.012 0 0 0 20.38 22.917 Q 20.287 23.563 20.246 24.314 A 22.869 22.869 0 0 0 20.215 25.547 Z" id="1" vector-effect="non-scaling-stroke"/><path d="M 38.223 34.824 L 38.047 33.301 A 14.596 14.596 0 0 1 39.21 33.017 A 16.643 16.643 0 0 1 39.619 32.939 A 231.907 231.907 0 0 0 40.427 32.795 A 196.487 196.487 0 0 0 41.191 32.656 L 41.191 6.113 L 37.578 6.113 L 37.344 4.395 Q 37.56 4.305 38.082 4.148 A 26.28 26.28 0 0 1 38.174 4.121 A 20.649 20.649 0 0 1 38.799 3.948 A 26.412 26.412 0 0 1 39.482 3.779 A 20.533 20.533 0 0 1 40.937 3.496 A 10.796 10.796 0 0 1 41.543 3.417 Q 41.828 3.388 42.081 3.381 A 5.849 5.849 0 0 1 42.246 3.379 A 4.834 4.834 0 0 1 42.717 3.4 Q 43.189 3.447 43.495 3.593 A 1.397 1.397 0 0 1 43.516 3.604 A 2.172 2.172 0 0 1 43.831 3.794 Q 44.049 3.954 44.18 4.15 Q 44.395 4.473 44.443 4.854 Q 44.485 5.181 44.491 5.443 A 3.743 3.743 0 0 1 44.492 5.527 L 44.492 32.656 L 47.871 33.242 A 2.705 2.705 0 0 1 47.916 33.727 A 2.508 2.508 0 0 1 47.891 34.082 A 6.003 6.003 0 0 1 47.817 34.496 A 4.58 4.58 0 0 1 47.734 34.824 L 38.223 34.824 Z" id="2" vector-effect="non-scaling-stroke"/><path d="M 50.918 34.824 L 50.742 33.301 A 8.979 8.979 0 0 1 52.108 32.954 A 10.011 10.011 0 0 1 52.314 32.92 A 56.902 56.902 0 0 0 53.123 32.791 A 48.483 48.483 0 0 0 53.887 32.656 L 53.887 18.398 L 50.391 18.398 L 50.137 16.719 Q 50.466 16.584 50.909 16.45 A 14.372 14.372 0 0 1 51.191 16.367 Q 51.816 16.191 52.471 16.045 A 21.171 21.171 0 0 1 53.43 15.853 A 18.955 18.955 0 0 1 53.74 15.801 A 10.018 10.018 0 0 1 54.139 15.745 Q 54.496 15.703 54.766 15.703 A 5.069 5.069 0 0 1 55.243 15.724 Q 55.721 15.769 56.034 15.913 A 1.487 1.487 0 0 1 56.045 15.918 A 1.846 1.846 0 0 1 56.402 16.134 A 1.385 1.385 0 0 1 56.729 16.494 A 1.727 1.727 0 0 1 56.942 17.02 A 2.257 2.257 0 0 1 56.992 17.354 A 12.932 12.932 0 0 1 57.029 18.128 A 14.808 14.808 0 0 1 57.031 18.398 L 57.031 19.902 A 3.025 3.025 0 0 1 57.078 19.803 Q 57.156 19.643 57.298 19.388 A 18.73 18.73 0 0 1 57.305 19.375 Q 57.5 19.023 57.725 18.643 A 24.227 24.227 0 0 1 58.146 17.954 A 22.199 22.199 0 0 1 58.174 17.91 Q 58.359 17.62 58.498 17.45 A 2.041 2.041 0 0 1 58.555 17.383 Q 59.18 16.582 60.127 16.104 A 4.197 4.197 0 0 1 61.166 15.748 Q 61.757 15.625 62.461 15.625 Q 62.598 15.625 62.832 15.635 A 13.52 13.52 0 0 1 63.195 15.655 A 15.277 15.277 0 0 1 63.32 15.664 A 13.388 13.388 0 0 1 63.828 15.713 A 3.129 3.129 0 0 1 64.053 15.747 Q 64.159 15.767 64.251 15.793 A 1.896 1.896 0 0 1 64.277 15.801 Q 64.295 16.01 64.304 16.329 A 19.483 19.483 0 0 1 64.307 16.406 Q 64.316 16.777 64.307 17.207 A 19.845 19.845 0 0 1 64.268 18.076 A 10.092 10.092 0 0 1 64.225 18.549 A 7.946 7.946 0 0 1 64.18 18.887 A 10.698 10.698 0 0 0 63.909 18.843 Q 63.787 18.824 63.649 18.806 A 22.313 22.313 0 0 0 63.359 18.77 Q 62.904 18.715 62.328 18.711 A 13.044 13.044 0 0 0 62.246 18.711 A 8.45 8.45 0 0 0 60.781 18.838 Q 60.059 18.965 59.473 19.219 A 4.059 4.059 0 0 0 58.517 19.779 A 3.682 3.682 0 0 0 58.203 20.059 A 14.718 14.718 0 0 0 57.359 20.98 A 16.533 16.533 0 0 0 57.168 21.211 L 57.168 32.656 L 61.68 33.105 Q 61.719 33.203 61.719 33.438 L 61.719 33.809 A 5.7 5.7 0 0 1 61.705 34.198 A 6.686 6.686 0 0 1 61.689 34.385 Q 61.665 34.636 61.607 34.773 A 0.483 0.483 0 0 1 61.582 34.824 L 50.918 34.824 Z" id="3" vector-effect="non-scaling-stroke"/><path d="M 66.992 34.824 L 66.816 33.301 A 8.52 8.52 0 0 1 67.897 33.012 A 10.127 10.127 0 0 1 68.428 32.92 A 49.438 49.438 0 0 0 69.265 32.791 A 39.381 39.381 0 0 0 70.039 32.656 L 70.039 18.398 L 66.719 18.398 L 66.504 16.719 A 12.094 12.094 0 0 1 66.703 16.647 Q 67.024 16.536 67.471 16.396 Q 68.066 16.211 68.711 16.064 Q 69.355 15.918 69.98 15.811 Q 70.605 15.703 71.055 15.703 A 5.307 5.307 0 0 1 71.531 15.723 Q 72.034 15.769 72.354 15.918 A 2.147 2.147 0 0 1 72.651 16.085 Q 72.805 16.19 72.915 16.312 A 1.117 1.117 0 0 1 73.018 16.445 Q 73.223 16.758 73.262 17.129 A 21.212 21.212 0 0 1 73.294 17.46 Q 73.308 17.615 73.318 17.754 A 12.422 12.422 0 0 1 73.32 17.793 L 73.32 32.656 L 76.68 33.242 A 4.023 4.023 0 0 1 76.699 33.643 A 4.638 4.638 0 0 1 76.68 34.062 A 3.018 3.018 0 0 1 76.616 34.468 A 2.283 2.283 0 0 1 76.504 34.824 L 66.992 34.824 Z M 70.606 11.204 A 3.666 3.666 0 0 0 71.309 11.27 A 3.825 3.825 0 0 0 71.597 11.259 A 3.156 3.156 0 0 0 72.178 11.162 Q 72.578 11.055 72.891 10.791 A 1.603 1.603 0 0 0 73.154 10.507 A 1.944 1.944 0 0 0 73.379 10.098 Q 73.555 9.668 73.555 9.023 A 4.312 4.312 0 0 0 73.549 8.795 Q 73.536 8.56 73.498 8.358 A 2.15 2.15 0 0 0 73.379 7.949 A 2.084 2.084 0 0 0 73.269 7.721 A 1.663 1.663 0 0 0 72.891 7.256 Q 72.578 6.992 72.178 6.885 A 2.994 2.994 0 0 0 71.867 6.819 A 3.591 3.591 0 0 0 71.309 6.777 A 3.994 3.994 0 0 0 71.163 6.78 A 3.506 3.506 0 0 0 70.42 6.885 A 2.095 2.095 0 0 0 70.391 6.893 A 1.81 1.81 0 0 0 69.687 7.256 A 1.603 1.603 0 0 0 69.425 7.54 A 1.944 1.944 0 0 0 69.199 7.949 Q 69.023 8.379 69.023 9.023 A 4.312 4.312 0 0 0 69.029 9.252 Q 69.042 9.486 69.081 9.689 A 2.15 2.15 0 0 0 69.199 10.098 A 2.084 2.084 0 0 0 69.309 10.326 A 1.663 1.663 0 0 0 69.688 10.791 A 1.755 1.755 0 0 0 69.808 10.884 A 1.845 1.845 0 0 0 70.42 11.162 A 3.29 3.29 0 0 0 70.606 11.204 Z" id="4" vector-effect="non-scaling-stroke"/><path d="M 91.758 21.992 L 91.406 18.574 A 6.713 6.713 0 0 0 90.254 18.164 A 9.859 9.859 0 0 0 89.52 18.003 A 8.156 8.156 0 0 0 89.102 17.939 A 15.423 15.423 0 0 0 88.645 17.889 Q 88.367 17.863 88.125 17.852 A 33.694 33.694 0 0 0 87.925 17.843 Q 87.646 17.832 87.5 17.832 A 4.998 4.998 0 0 0 86.45 17.938 A 4.014 4.014 0 0 0 85.615 18.213 Q 84.785 18.594 84.219 19.482 A 5.072 5.072 0 0 0 83.804 20.298 Q 83.635 20.713 83.503 21.206 A 10.352 10.352 0 0 0 83.359 21.826 A 13.105 13.105 0 0 0 83.181 23.012 Q 83.111 23.663 83.084 24.411 A 27.494 27.494 0 0 0 83.066 25.41 A 23.923 23.923 0 0 0 83.108 26.867 Q 83.179 28.022 83.369 28.906 Q 83.672 30.313 84.355 31.162 A 3.691 3.691 0 0 0 85.862 32.269 A 4.558 4.558 0 0 0 86.172 32.383 A 6.708 6.708 0 0 0 87.183 32.623 Q 87.685 32.705 88.264 32.736 A 13.622 13.622 0 0 0 88.984 32.754 A 7.588 7.588 0 0 0 90.732 32.549 A 18.382 18.382 0 0 0 91.56 32.334 A 13.987 13.987 0 0 0 92.305 32.1 A 16.527 16.527 0 0 0 92.777 31.928 Q 93.169 31.778 93.457 31.641 Q 93.887 31.435 93.959 31.408 A 0.186 0.186 0 0 1 93.965 31.406 L 94.785 33.164 A 3.016 3.016 0 0 1 94.697 33.227 Q 94.505 33.36 94.063 33.643 Q 93.496 34.004 92.607 34.395 A 11.289 11.289 0 0 1 91.678 34.752 Q 91.146 34.932 90.537 35.088 A 9.667 9.667 0 0 1 88.898 35.355 A 11.789 11.789 0 0 1 87.969 35.391 A 16.318 16.318 0 0 1 85.85 35.254 A 8.133 8.133 0 0 1 83.891 34.752 A 7.669 7.669 0 0 1 83.877 34.746 A 6.155 6.155 0 0 1 82.168 33.711 A 5.22 5.22 0 0 1 81.316 32.778 A 6.81 6.81 0 0 1 80.82 31.973 A 8.165 8.165 0 0 1 80.343 30.865 Q 80.148 30.308 79.998 29.666 A 14.176 14.176 0 0 1 79.932 29.365 A 13.925 13.925 0 0 1 79.711 27.917 Q 79.635 27.168 79.616 26.319 A 25.614 25.614 0 0 1 79.609 25.742 A 17.055 17.055 0 0 1 79.752 23.485 A 13.055 13.055 0 0 1 80.146 21.582 A 9.765 9.765 0 0 1 80.892 19.716 A 7.963 7.963 0 0 1 81.748 18.418 A 7.013 7.013 0 0 1 84.414 16.406 A 8.101 8.101 0 0 1 86.383 15.838 A 11.014 11.014 0 0 1 88.145 15.703 A 19.656 19.656 0 0 1 88.821 15.715 A 25.809 25.809 0 0 1 89.561 15.752 A 19.693 19.693 0 0 1 91.041 15.904 A 21.511 21.511 0 0 1 91.143 15.918 Q 91.953 16.035 92.773 16.24 Q 93.594 16.445 94.355 16.777 A 5.076 5.076 0 0 1 94.379 17.119 Q 94.39 17.423 94.37 17.77 A 9.271 9.271 0 0 1 94.346 18.086 A 20.691 20.691 0 0 1 94.15 19.59 A 44.577 44.577 0 0 1 93.988 20.508 A 37.419 37.419 0 0 1 93.887 21.025 A 44.664 44.664 0 0 1 93.821 21.345 Q 93.755 21.656 93.7 21.891 A 13.35 13.35 0 0 1 93.652 22.09 A 54.84 54.84 0 0 1 93.252 22.088 Q 93.096 22.087 92.957 22.085 A 26.413 26.413 0 0 1 92.695 22.08 A 5.901 5.901 0 0 1 92.38 22.063 Q 92.1 22.041 91.758 21.992 Z" id="5" vector-effect="non-scaling-stroke"/><path d="M 102.637 38.574 L 102.637 28.496 Q 102.637 27.741 102.709 27.144 A 7.496 7.496 0 0 1 102.734 26.953 A 4.842 4.842 0 0 1 102.861 26.349 A 3.582 3.582 0 0 1 103.066 25.791 A 3.059 3.059 0 0 1 103.672 24.922 Q 104.043 24.551 104.59 24.258 L 107.617 22.637 L 104.668 21.172 A 3.79 3.79 0 0 1 103.184 19.736 Q 102.637 18.809 102.637 17.285 L 102.637 6.582 A 7.61 7.61 0 0 0 102.619 6.053 Q 102.596 5.712 102.539 5.43 A 3.342 3.342 0 0 0 102.405 4.944 A 2.62 2.62 0 0 0 102.236 4.57 A 2.485 2.485 0 0 0 101.699 3.906 A 3.946 3.946 0 0 0 101.341 3.627 Q 101.157 3.499 100.941 3.375 A 6.56 6.56 0 0 0 100.879 3.34 L 97.793 1.543 L 98.535 0.02 A 21.028 21.028 0 0 1 99.961 0.319 Q 101.419 0.681 102.393 1.191 A 9.166 9.166 0 0 1 103.357 1.77 Q 104.08 2.271 104.531 2.832 A 4.969 4.969 0 0 1 105.115 3.733 A 3.895 3.895 0 0 1 105.449 4.697 A 9.904 9.904 0 0 1 105.621 5.928 A 8.345 8.345 0 0 1 105.645 6.543 L 105.645 17.734 Q 105.645 17.996 105.677 18.192 A 1.602 1.602 0 0 0 105.703 18.32 A 1.209 1.209 0 0 0 105.785 18.55 A 0.97 0.97 0 0 0 105.889 18.721 A 1.482 1.482 0 0 0 106.112 18.953 A 1.737 1.737 0 0 0 106.201 19.023 Q 106.343 19.128 106.537 19.244 A 6.751 6.751 0 0 0 106.66 19.316 L 110.957 21.758 L 110.957 23.691 L 106.289 26.426 A 1.333 1.333 0 0 0 105.995 26.668 A 1.062 1.062 0 0 0 105.762 27.09 A 3.041 3.041 0 0 0 105.658 27.662 A 3.754 3.754 0 0 0 105.645 27.988 L 105.645 38.516 A 9.615 9.615 0 0 1 105.587 39.552 A 10.744 10.744 0 0 1 105.566 39.727 Q 105.488 40.352 105.244 40.986 A 4.545 4.545 0 0 1 104.764 41.898 A 5.419 5.419 0 0 1 104.531 42.217 A 4.665 4.665 0 0 1 103.982 42.798 Q 103.667 43.081 103.271 43.35 A 7.296 7.296 0 0 1 102.508 43.799 Q 102.106 44.006 101.638 44.193 A 12.688 12.688 0 0 1 101.318 44.316 A 13.037 13.037 0 0 1 100.214 44.666 Q 99.639 44.822 98.982 44.954 A 23.761 23.761 0 0 1 98.535 45.039 L 97.891 43.418 L 100.879 41.797 A 9.184 9.184 0 0 0 101.263 41.527 Q 101.45 41.388 101.608 41.253 A 5.389 5.389 0 0 0 101.68 41.191 A 2.881 2.881 0 0 0 102.138 40.682 A 2.626 2.626 0 0 0 102.227 40.547 A 2.355 2.355 0 0 0 102.449 40.062 A 2.983 2.983 0 0 0 102.539 39.727 A 4.093 4.093 0 0 0 102.599 39.345 Q 102.622 39.133 102.631 38.889 A 8.533 8.533 0 0 0 102.637 38.574 Z" id="6" vector-effect="non-scaling-stroke"/></g></svg>